<?xml version="1.0" encoding="utf-8"?>
<!-- Generator: Adobe Illustrator 21.1.0, SVG Export Plug-In . SVG Version: 6.00 Build 0)  -->
<svg version="1.1" id="Layer_1" xmlns="http://www.w3.org/2000/svg" xmlns:xlink="http://www.w3.org/1999/xlink" x="0px" y="0px"
	 viewBox="0 0 48.9 47.3" style="enable-background:new 0 0 48.9 47.3;" xml:space="preserve">
<style type="text/css">
	.st0{fill:#333333;}
</style>
<g>
	<path class="st0" d="M36.8,17.3c-5,0-9.1,4.1-9.1,9v8.4c0,1.2-0.3,2.2-0.9,2.8c-0.6,0.6-1.4,1-2.3,1s-1.7-0.3-2.3-1
		c-0.1-0.1-0.2-0.3-0.3-0.5c0.7,3.3,3.3,6.1,6.7,6.8l0.5,0.1c0.9-0.5,1.7-1.1,2.4-1.9c1.7-1.9,2.6-4.4,2.6-7.6v-8.1
		c0-1.8,1.5-3.3,3.3-3.3h0.3c2.8,0,5.1-0.8,6.9-2.3c1.7-1.5,2.4-3.5,2.4-3.5H36.8z"/>
	<path class="st0" d="M10.5,11.9c-3.8,0-7.1,2.4-8.4,5.7c0.5,1.2,1.2,2.3,2.2,3.2c1.7,1.5,4,2.4,6.9,2.4h0.3c1.8,0,3.3,1.5,3.3,3.3
		v8.1c0,3.1,0.9,5.7,2.6,7.6c1.8,2,4.3,3,7.1,3c1.8,0,4-0.9,4-0.9c-4.1-0.9-7.2-4.6-7.2-8.9v-0.6v-8.4c0-5-4-9-9-9
		c-1,0-1.8-0.2-2.4-0.7c-0.5-0.5-0.8-1.2-0.8-2c0-0.9,0.3-1.5,0.9-2c0.3-0.2,0.8-0.5,1.2-0.6c0.1,0,0,0,0-0.1c-0.1,0-0.1,0-0.2,0
		C10.9,11.9,10.7,11.9,10.5,11.9z"/>
	<path class="st0" d="M28.9,6.4c0-0.6-0.5-1.1-1.1-1.1H11.2c-2.7,0-5,0.8-6.7,2.2c-1.9,1.7-3,4-3,6.7c0,1,0.2,1.9,0.4,2.8
		c0.1-0.3,0.3-0.5,0.4-0.8c0.4-0.8,1-1.5,1.6-2.1c0.6-0.6,1.3-1.1,2.1-1.5c0.8-0.4,1.6-0.7,2.5-0.9c0.5-0.1,1-0.2,1.5-0.2
		c0.5,0,0.9,0.1,1.4,0.1c0,0,0.1,0,0.1,0c0.3,0,0.6,0.1,0.8,0.2v0h0H27c0.6,0,1.1-0.5,1.1-1.1c0-0.5-0.3-0.9-0.8-1h0
		c0.6,0,1.1-0.5,1.1-1.1c0-0.5-0.3-0.9-0.8-1h0C28.4,7.5,28.9,7,28.9,6.4z"/>
	<circle class="st0" cx="31.5" cy="5.9" r="1"/>
	<circle class="st0" cx="30.6" cy="8.5" r="1"/>
	<circle class="st0" cx="29.5" cy="11.1" r="1"/>
	<circle class="st0" cx="34.9" cy="5" r="0.9"/>
	<circle class="st0" cx="38.2" cy="4.2" r="0.7"/>
	<circle class="st0" cx="37.1" cy="6.8" r="0.7"/>
	<circle class="st0" cx="35.9" cy="9.6" r="0.7"/>
	<circle class="st0" cx="39.8" cy="6.4" r="0.6"/>
	<circle class="st0" cx="41" cy="3.5" r="0.6"/>
	<circle class="st0" cx="34.1" cy="7.6" r="0.9"/>
	<circle class="st0" cx="32.9" cy="10.6" r="0.9"/>
</g>
</svg>
