<?xml version="1.0" encoding="utf-8"?>
<!-- Generator: Adobe Illustrator 22.1.0, SVG Export Plug-In . SVG Version: 6.00 Build 0)  -->
<svg version="1.1" id="Layer_1" xmlns="http://www.w3.org/2000/svg" xmlns:xlink="http://www.w3.org/1999/xlink" x="0px" y="0px"
	 viewBox="0 0 223.8 55.2" style="enable-background:new 0 0 223.8 55.2;" xml:space="preserve">
<style type="text/css">
	.st0{fill:#FFFFFF;}
</style>
<g>
	<path class="st0" d="M83,15.1h-7.4v24.4c0,1.4-0.3,2.4-0.9,3.1c-0.6,0.6-1.5,1-2.4,1c-1,0-1.8-0.4-2.5-1c-0.6-0.6-0.9-1.8-0.9-3.1
		V15.1h-7.4c-1.2,0-2-0.3-2.6-0.7c-0.6-0.6-0.8-1.2-0.8-2c0-0.8,0.3-1.6,0.9-2c0.6-0.5,1.5-0.7,2.6-0.7h21.6c1.2,0,2,0.3,2.6,0.7
		c0.6,0.6,0.8,1.2,0.8,2c0,0.8-0.3,1.5-0.8,2C85,14.8,84.2,15.1,83,15.1z"/>
	<path class="st0" d="M104.5,32.5H92.3c0,1.4,0.3,2.7,0.8,3.8c0.6,1.1,1.3,1.9,2.2,2.4c0.9,0.6,1.9,0.8,3.1,0.8c0.7,0,1.4-0.1,2-0.3
		c0.6-0.2,1.2-0.5,1.8-0.8c0.6-0.4,1.1-0.7,1.6-1.2s1.1-1,1.9-1.8c0.3-0.3,0.7-0.4,1.4-0.4c0.6,0,1.2,0.2,1.6,0.6
		c0.4,0.4,0.6,0.8,0.6,1.5c0,0.6-0.2,1.2-0.6,1.9s-1.1,1.5-2,2.2c-0.9,0.7-2,1.3-3.3,1.8c-1.4,0.5-2.9,0.6-4.6,0.6
		c-4,0-7.1-1.1-9.3-3.4s-3.3-5.4-3.3-9.3c0-1.8,0.3-3.5,0.8-5.2c0.6-1.6,1.4-3,2.4-4.1c1-1.1,2.3-2,3.9-2.6c1.6-0.6,3.2-0.9,5.1-0.9
		c2.4,0,4.5,0.6,6.3,1.6c1.8,1,3.1,2.4,3.9,4c0.8,1.7,1.3,3.3,1.3,5c0,1.6-0.5,2.6-1.4,3.1C107.5,32.2,106.2,32.5,104.5,32.5z
		 M92.3,28.9h11.4c-0.2-2.1-0.7-3.7-1.8-4.8c-1-1-2.3-1.6-4-1.6c-1.6,0-2.9,0.6-3.8,1.6C93.1,25.2,92.6,26.7,92.3,28.9z"/>
	<path class="st0" d="M130.7,40.1c-1.5,1.2-3,2-4.3,2.7c-1.4,0.6-3,0.9-4.7,0.9c-1.6,0-3.1-0.3-4.3-0.9c-1.2-0.6-2.1-1.5-2.8-2.6
		c-0.6-1.1-1-2.2-1-3.5c0-1.7,0.6-3.1,1.7-4.3c1.1-1.2,2.6-2,4.4-2.4c0.4-0.1,1.4-0.3,3-0.6c1.6-0.3,3-0.6,4.1-0.9
		c1.1-0.3,2.3-0.6,3.6-1c-0.1-1.7-0.4-2.9-1-3.6c-0.6-0.7-1.8-1.1-3.6-1.1c-1.6,0-2.8,0.2-3.6,0.6s-1.5,1.1-2,2
		c-0.6,0.9-1,1.5-1.2,1.8c-0.3,0.3-0.7,0.5-1.5,0.5c-0.7,0-1.3-0.2-1.8-0.6s-0.7-1-0.7-1.8c0-1.1,0.4-2.1,1.2-3.2
		c0.7-1,2-1.8,3.6-2.6c1.7-0.6,3.7-1,6.2-1c2.8,0,4.9,0.4,6.5,1c1.6,0.6,2.7,1.7,3.3,3.1c0.6,1.4,1,3.2,1,5.5c0,1.5,0,2.7,0,3.7
		s0,2.1,0,3.4c0,1.2,0.2,2.4,0.6,3.7c0.4,1.3,0.6,2.1,0.6,2.5c0,0.6-0.3,1.2-0.9,1.8c-0.6,0.6-1.3,0.8-2,0.8c-0.6,0-1.3-0.3-1.9-0.9
		C132.1,42.1,131.4,41.3,130.7,40.1z M130.3,31c-0.9,0.4-2.2,0.6-4,1.1c-1.8,0.4-3,0.6-3.6,0.8c-0.6,0.2-1.3,0.6-1.9,1
		c-0.6,0.6-0.9,1.2-0.9,2.1s0.4,1.8,1.1,2.4c0.7,0.6,1.7,1,2.8,1c1.2,0,2.4-0.3,3.4-0.8c1-0.6,1.8-1.2,2.3-2.1
		c0.6-0.9,0.8-2.5,0.8-4.6L130.3,31z"/>
	<path class="st0" d="M148.5,21.7v0.7c1.1-1.5,2.3-2.5,3.6-3.2c1.3-0.6,2.8-1,4.5-1c1.7,0,3.1,0.4,4.4,1.1c1.3,0.7,2.3,1.8,2.9,3.1
		c0.4,0.7,0.6,1.6,0.8,2.5c0.1,0.9,0.2,2,0.2,3.4v11.6c0,1.3-0.3,2.2-0.8,2.9c-0.6,0.6-1.3,0.9-2.2,0.9s-1.7-0.4-2.3-1
		c-0.6-0.6-0.8-1.6-0.8-2.8V29.4c0-2-0.3-3.6-0.8-4.7c-0.6-1.1-1.8-1.7-3.4-1.7c-1.1,0-2.1,0.4-3.1,1c-0.9,0.6-1.6,1.6-2,2.8
		c-0.3,0.9-0.5,2.7-0.5,5.2v7.9c0,1.3-0.3,2.2-0.9,2.9c-0.6,0.6-1.4,0.9-2.3,0.9s-1.7-0.4-2.2-1c-0.6-0.6-0.8-1.6-0.8-2.8v-18
		c0-1.2,0.3-2,0.7-2.7c0.6-0.6,1.2-0.9,2.1-0.9c0.6,0,1,0.1,1.5,0.4c0.5,0.3,0.8,0.6,1.1,1.2C148.3,20.3,148.5,20.9,148.5,21.7z"/>
	<path class="st0" d="M194.1,22.8v18.1c0,2-0.2,3.9-0.6,5.4c-0.5,1.5-1.1,2.8-2.1,3.7c-1,1-2.2,1.7-3.8,2.2
		c-1.6,0.5-3.5,0.7-5.9,0.7c-2.1,0-4.1-0.3-5.7-0.9c-1.7-0.6-3-1.4-3.9-2.3s-1.4-1.9-1.4-3c0-0.7,0.3-1.4,0.7-1.8
		c0.6-0.5,1.1-0.7,1.8-0.7c0.9,0,1.8,0.4,2.4,1.2c0.4,0.4,0.6,0.8,1,1.2c0.4,0.5,0.7,0.7,1.2,1.1c0.5,0.3,0.9,0.6,1.6,0.6
		c0.6,0.2,1.3,0.2,2.1,0.2c1.6,0,2.9-0.2,3.8-0.6s1.5-1.1,1.8-1.8c0.4-0.8,0.6-1.7,0.6-2.6s0.1-2.4,0.1-4.4c-0.9,1.4-2,2.4-3.3,3.1
		c-1.3,0.7-2.8,1-4.5,1c-2.1,0-3.9-0.6-5.5-1.6c-1.6-1.1-2.8-2.6-3.6-4.5c-0.8-1.9-1.3-4.2-1.3-6.7c0-1.8,0.3-3.6,0.7-5.1
		c0.5-1.5,1.2-2.8,2.2-3.8c0.9-1,2-1.8,3.2-2.3c1.2-0.6,2.6-0.8,4.1-0.8c1.8,0,3.3,0.4,4.6,1c1.3,0.6,2.5,1.8,3.6,3.2v-0.8
		c0-1.1,0.3-1.9,0.8-2.5c0.6-0.6,1.2-0.9,2-0.9c1.2,0,2,0.4,2.4,1.2C193.9,20.2,194.1,21.3,194.1,22.8z M175.9,30.7
		c0,2.5,0.6,4.4,1.7,5.7s2.5,1.9,4.3,1.9c1,0,2-0.3,3-0.8c0.9-0.6,1.7-1.4,2.2-2.5c0.6-1.1,0.8-2.5,0.8-4.1c0-2.6-0.6-4.5-1.7-5.9
		c-1.1-1.4-2.6-2.1-4.4-2.1c-1.8,0-3.2,0.6-4.3,2C176.5,26.3,175.9,28.2,175.9,30.7z"/>
	<path class="st0" d="M215,40.1c-1.5,1.2-3,2-4.3,2.7c-1.4,0.6-3,0.9-4.7,0.9c-1.6,0-3.1-0.3-4.3-0.9c-1.2-0.6-2.1-1.5-2.8-2.6
		c-0.6-1.1-1-2.2-1-3.5c0-1.7,0.6-3.1,1.7-4.3s2.6-2,4.4-2.4c0.4-0.1,1.4-0.3,3-0.6c1.6-0.3,3-0.6,4.1-0.9s2.3-0.6,3.6-1
		c-0.1-1.7-0.4-2.9-1-3.6c-0.6-0.7-1.8-1.1-3.6-1.1c-1.6,0-2.8,0.2-3.6,0.6c-0.8,0.5-1.5,1.1-2,2c-0.6,0.9-1,1.5-1.2,1.8
		c-0.3,0.3-0.7,0.5-1.5,0.5s-1.3-0.2-1.8-0.6s-0.7-1-0.7-1.8c0-1.1,0.4-2.1,1.2-3.2c0.7-1,2-1.8,3.6-2.6c1.7-0.6,3.7-1,6.2-1
		c2.8,0,4.9,0.4,6.5,1c1.6,0.6,2.7,1.7,3.3,3.1s1,3.2,1,5.5c0,1.5,0,2.7,0,3.7s0,2.1,0,3.4c0,1.2,0.2,2.4,0.6,3.7
		c0.4,1.3,0.6,2.1,0.6,2.5c0,0.6-0.3,1.2-0.9,1.8c-0.6,0.6-1.3,0.8-2,0.8c-0.6,0-1.3-0.3-1.9-0.9C216.3,42.1,215.7,41.3,215,40.1z
		 M214.6,31c-0.9,0.4-2.2,0.6-4,1.1c-1.8,0.4-3,0.6-3.6,0.8c-0.6,0.2-1.3,0.6-1.9,1c-0.6,0.6-0.9,1.2-0.9,2.1s0.4,1.8,1.1,2.4
		c0.7,0.6,1.7,1,2.8,1c1.2,0,2.4-0.3,3.4-0.8c1-0.6,1.8-1.2,2.3-2.1c0.6-0.9,0.8-2.5,0.8-4.6L214.6,31L214.6,31z"/>
</g>
<g>
	<g>
		<g>
			<path class="st0" d="M2.6,17.8c1.3-3.4,4.7-5.8,8.6-5.8H13c-1,0-1.8,0.2-2.4,0.7c-0.6,0.5-0.9,1.2-0.9,2.1c0,0.8,0.3,1.5,0.8,2
				c0.6,0.5,1.3,0.8,2.4,0.8c5.1,0,9.2,4.2,9.2,9.2v8.6V36c0,4.4,3.2,8.2,7.4,9.1l0,0C28.4,45.7,27,46,25.5,46
				c-2.9,0-5.4-1.1-7.2-3.1c-1.8-1.9-2.7-4.5-2.7-7.7v-8.3c0-1.9-1.5-3.4-3.4-3.4h-0.4c-2.9,0-5.3-0.8-7-2.4
				C3.9,20.2,3.1,19,2.6,17.8L2.6,17.8z"/>
		</g>
		<path class="st0" d="M29.2,26.3v8.6c0,1.2-0.3,2.2-0.9,2.9c-0.6,0.6-1.4,1-2.3,1c-1,0-1.7-0.3-2.3-1c-0.6-0.6-0.9-1.6-0.9-2.8v0.6
			c0,4.4,3.2,8.2,7.4,9.1c1.2-0.5,2.2-1.3,3.1-2.2c1.8-1.9,2.7-4.5,2.7-7.7v-8.3c0-1.9,1.5-3.4,3.4-3.4h0.4c2.9,0,5.2-0.8,7-2.4
			c1.7-1.5,2.5-3.6,2.5-3.6H38.5C33.4,17.1,29.2,21.3,29.2,26.3z"/>
	</g>
	<circle class="st0" cx="32.6" cy="5.4" r="1.1"/>
	<circle class="st0" cx="31.7" cy="8" r="1.1"/>
	<circle class="st0" cx="30.6" cy="10.7" r="1.1"/>
	<circle class="st0" cx="36.1" cy="4.5" r="0.9"/>
	<circle class="st0" cx="39.5" cy="3.7" r="0.8"/>
	<circle class="st0" cx="38.3" cy="6.3" r="0.8"/>
	<circle class="st0" cx="37.1" cy="9.2" r="0.7"/>
	<circle class="st0" cx="41.1" cy="5.9" r="0.6"/>
	<circle class="st0" cx="42.4" cy="3" r="0.6"/>
	<circle class="st0" cx="35.2" cy="7.2" r="0.9"/>
	<circle class="st0" cx="34.1" cy="10.2" r="0.9"/>
	<path class="st0" d="M29.7,5.9c0-0.6-0.5-1.1-1.1-1.1l-16.9,0c-2.8,0-5.1,0.8-6.9,2.3c-2,1.7-3.1,4.1-3.1,6.9
		c0,1.2,0.2,2.4,0.6,3.5c1.3-3.4,4.7-5.9,8.6-5.9h16.8l0,0c0.6,0,1.1-0.5,1.1-1.1c0-0.5-0.3-0.9-0.8-1.1c0,0,0,0,0.1,0
		c0.6,0,1.1-0.5,1.1-1.1c0-0.5-0.3-0.9-0.8-1.1c0,0,0,0,0.1,0C29.1,7.1,29.7,6.6,29.7,5.9z"/>
</g>
</svg>
