<?xml version="1.0" encoding="utf-8"?>
<!-- Generator: Adobe Illustrator 22.1.0, SVG Export Plug-In . SVG Version: 6.00 Build 0)  -->
<svg version="1.1" id="Layer_1" xmlns="http://www.w3.org/2000/svg" xmlns:xlink="http://www.w3.org/1999/xlink" x="0px" y="0px"
	 viewBox="0 0 137.5 135" style="enable-background:new 0 0 137.5 135;" xml:space="preserve">
<style type="text/css">
	.st0{fill:#EAEAEA;}
	.st1{fill:#CC1C66;}
	.st2{fill:#FFFFFF;}
</style>
<g>
	<g>
		<path class="st0" d="M16.9,113.9l-4.7,1.7l-0.3-0.7l3.6-3.1l0,0l-4.7,0l-0.2-0.7l4.7-1.7l0.2,0.4l-4.2,1.6l0,0l4.8,0l0.2,0.4
			l-3.6,3.1l0,0l4.2-1.6L16.9,113.9z"/>
		<path class="st0" d="M12.5,107.5c0-0.1-0.1-0.2-0.1-0.3c0-0.1-0.1-0.2-0.1-0.2c-0.1-0.1-0.1-0.1-0.2-0.1c-0.1,0-0.1,0-0.2,0
			c-0.2,0.1-0.4,0.2-0.5,0.3c-0.1,0.2-0.1,0.4,0,0.7c0,0.1,0.1,0.3,0.1,0.4c0.1,0.1,0.1,0.2,0.2,0.3c0.1,0.1,0.2,0.1,0.3,0.1
			s0.3,0,0.4,0l0.1,0.4c-0.2,0-0.4,0-0.6,0c-0.2,0-0.3-0.1-0.4-0.2c-0.1-0.1-0.2-0.2-0.3-0.4c-0.1-0.2-0.2-0.3-0.2-0.5
			c0-0.2-0.1-0.3-0.1-0.5c0-0.2,0-0.3,0.1-0.5c0.1-0.1,0.1-0.3,0.3-0.4c0.1-0.1,0.3-0.2,0.5-0.2l1.9-0.5c0.2,0,0.2-0.1,0.3-0.2
			s0-0.2-0.1-0.3l0.3-0.1c0,0,0,0.1,0.1,0.1c0,0.1,0.1,0.1,0.1,0.2c0,0.1,0,0.1,0,0.2c0,0.1,0,0.1,0,0.2s-0.1,0.1-0.1,0.1
			c0,0-0.1,0.1-0.1,0.1s-0.1,0-0.2,0.1c0.2,0.1,0.4,0.3,0.6,0.5c0.2,0.2,0.3,0.4,0.3,0.7c0,0.2,0.1,0.3,0.1,0.5c0,0.2,0,0.3-0.1,0.4
			c-0.1,0.1-0.1,0.2-0.2,0.3s-0.2,0.2-0.4,0.2c-0.6,0.2-1.1-0.1-1.4-0.9L12.5,107.5z M12.5,106.8c0.1,0.2,0.2,0.3,0.3,0.5
			c0.1,0.2,0.1,0.3,0.2,0.5c0.1,0.3,0.2,0.5,0.4,0.7c0.2,0.1,0.4,0.2,0.6,0.1c0.1,0,0.2-0.1,0.3-0.1s0.1-0.1,0.1-0.2
			c0-0.1,0-0.2,0-0.3c0-0.1,0-0.2,0-0.3c0-0.2-0.1-0.3-0.2-0.5s-0.2-0.3-0.3-0.4c-0.1-0.1-0.2-0.2-0.4-0.2c-0.1,0-0.3,0-0.5,0
			L12.5,106.8z"/>
		<path class="st0" d="M8.5,103.2l-0.1-0.4l4.9-1l0.1,0.4l-0.6,0.1l0,0c0.1,0,0.2,0.1,0.4,0.2c0.1,0.1,0.2,0.2,0.3,0.3
			c0.1,0.1,0.2,0.2,0.2,0.3c0.1,0.1,0.1,0.2,0.1,0.3c0.1,0.3,0.1,0.5,0,0.8c-0.1,0.2-0.2,0.4-0.3,0.6c-0.1,0.2-0.3,0.3-0.5,0.4
			c-0.2,0.1-0.5,0.2-0.7,0.2c-0.2,0-0.5,0.1-0.7,0c-0.2,0-0.5-0.1-0.7-0.2s-0.4-0.2-0.5-0.4s-0.2-0.4-0.3-0.7c-0.1-0.3,0-0.5,0-0.8
			c0.1-0.3,0.2-0.5,0.4-0.6L8.5,103.2z M11.7,102.5c-0.2,0-0.4,0.1-0.6,0.2s-0.3,0.2-0.4,0.3s-0.2,0.3-0.2,0.4s-0.1,0.3,0,0.5
			c0,0.2,0.1,0.4,0.2,0.5c0.1,0.1,0.3,0.2,0.4,0.3s0.4,0.1,0.6,0.1s0.4,0,0.6-0.1c0.2,0,0.4-0.1,0.6-0.2c0.2-0.1,0.3-0.2,0.4-0.3
			s0.2-0.3,0.2-0.4c0-0.2,0-0.3,0-0.5c0-0.2-0.1-0.4-0.2-0.5c-0.1-0.1-0.2-0.2-0.4-0.3c-0.2-0.1-0.3-0.1-0.5-0.1
			C12.1,102.5,11.9,102.5,11.7,102.5z"/>
		<path class="st0" d="M11.5,100.8c0.2,0,0.4-0.1,0.5-0.1c0.2-0.1,0.3-0.2,0.4-0.3c0.1-0.1,0.2-0.3,0.3-0.4c0.1-0.2,0.1-0.3,0-0.5
			c0-0.3-0.1-0.5-0.3-0.7s-0.4-0.3-0.7-0.3l-0.1-0.5c0.2,0,0.3,0.1,0.5,0.1c0.2,0.1,0.3,0.2,0.4,0.3s0.2,0.2,0.3,0.4
			c0.1,0.2,0.1,0.4,0.2,0.6c0,0.3,0,0.5-0.1,0.8c-0.1,0.2-0.2,0.4-0.3,0.6c-0.2,0.2-0.3,0.3-0.6,0.4s-0.5,0.2-0.7,0.2
			c-0.3,0-0.5,0-0.8,0c-0.2,0-0.5-0.1-0.6-0.3c-0.2-0.1-0.3-0.3-0.5-0.5s-0.2-0.4-0.2-0.7c-0.1-0.5,0.1-0.9,0.4-1.2
			c0.3-0.3,0.8-0.5,1.4-0.6L11.5,100.8z M10.9,98.5c-0.2,0-0.3,0.1-0.5,0.1c-0.1,0.1-0.3,0.2-0.4,0.3c-0.1,0.1-0.2,0.2-0.2,0.4
			c0,0.2-0.1,0.3,0,0.5c0,0.2,0.1,0.3,0.2,0.5c0.1,0.1,0.2,0.2,0.3,0.3c0.1,0.1,0.3,0.1,0.4,0.2s0.3,0.1,0.5,0.1L10.9,98.5z"/>
		<path class="st0" d="M12.1,92.1L9,91.2l0-0.4l3.6,1.1l0,0.4l-3,0.8v0l3.1,0.8l0,0.5L9,95.6l0-0.4l3.1-1L9,93.4l0-0.5L12.1,92.1z"
			/>
		<path class="st0" d="M8.3,89.9l-0.6,0l0-0.5l0.6,0L8.3,89.9z M12.7,90.1L9.1,90l0-0.4l3.6,0.2L12.7,90.1z"/>
		<path class="st0" d="M12.9,87.4c0,0.1,0,0.1,0,0.2c0,0.1,0,0.2,0,0.3c0,0.2-0.1,0.4-0.2,0.5c-0.1,0.1-0.3,0.1-0.6,0.1l-2.6-0.2
			l0,0.5l-0.3,0l0-0.5l-1-0.1l0-0.4l1,0.1l0.1-0.7l0.3,0l-0.1,0.7L12,88c0.1,0,0.2,0,0.2,0c0.1,0,0.1,0,0.2,0c0,0,0.1-0.1,0.1-0.1
			c0,0,0-0.1,0-0.2c0-0.1,0-0.1,0-0.2c0-0.1,0-0.1,0-0.2L12.9,87.4z"/>
		<path class="st0" d="M12.9,86.8l-5-0.7L8,85.8L9.9,86c-0.2-0.2-0.3-0.4-0.4-0.6c-0.1-0.2-0.1-0.4-0.1-0.7c0-0.2,0.1-0.4,0.2-0.6
			s0.3-0.3,0.5-0.4c0.1-0.1,0.3-0.1,0.4-0.1c0.1,0,0.3,0,0.4,0l2.4,0.3l-0.1,0.4l-2.3-0.3c-0.3,0-0.6,0-0.8,0.1s-0.3,0.3-0.3,0.7
			c0,0.1,0,0.3,0,0.4s0.1,0.2,0.1,0.3c0.1,0.1,0.1,0.2,0.2,0.2c0.1,0.1,0.2,0.1,0.2,0.2c0.1,0.1,0.2,0.1,0.3,0.1
			c0.1,0,0.2,0,0.3,0.1l1.9,0.3L12.9,86.8z"/>
		<path class="st1" d="M14.1,79.6c-1.4,0.4-1.7,2.3-3.6,1.8c-0.9-0.2-1.2-0.9-1.1-1.7c0.1-0.6,0.5-0.9,1.2-1l0,0
			C10,78.5,9.8,78,10,77.4c0.2-0.8,0.8-1.2,1.7-1C13.6,76.8,13,78.7,14.1,79.6L14.1,79.6z"/>
		<path class="st0" d="M11.1,74l-0.6-0.2l0.1-0.4l0.6,0.2L11.1,74z M15.3,75.3l-3.5-1.1l0.1-0.4l3.5,1.1L15.3,75.3z"/>
		<path class="st0" d="M15.9,73.5l-0.1,0.4l-3.4-1.2l0.1-0.4l0.5,0.2c-0.1-0.2-0.2-0.4-0.2-0.6s0-0.4,0.1-0.7
			c0.1-0.2,0.2-0.4,0.3-0.5c0.1-0.2,0.3-0.3,0.5-0.3c0.2,0,0.3,0,0.4,0c0.1,0,0.3,0.1,0.4,0.1l2.2,0.8l-0.1,0.4l-2.2-0.8
			c-0.3-0.1-0.6-0.1-0.8,0s-0.4,0.3-0.5,0.6c0,0.1-0.1,0.2-0.1,0.4s0,0.2,0.1,0.3c0,0.1,0.1,0.2,0.1,0.3c0.1,0.1,0.1,0.2,0.2,0.2
			c0.1,0.1,0.2,0.1,0.3,0.2c0.1,0,0.2,0.1,0.3,0.1L15.9,73.5z"/>
		<path class="st0" d="M16.7,65.6l-0.4-0.2l0.9-2l2.4,1.1L19.5,65l-0.8-0.4c0.1,0.1,0.2,0.3,0.2,0.4s0.1,0.3,0.1,0.5s0,0.4,0,0.6
			c0,0.2-0.1,0.4-0.2,0.6c-0.1,0.3-0.3,0.5-0.5,0.7c-0.2,0.2-0.5,0.3-0.7,0.4s-0.6,0.1-1,0.1c-0.4,0-0.7-0.2-1.1-0.3
			c-0.3-0.2-0.6-0.3-0.9-0.6c-0.3-0.2-0.4-0.5-0.6-0.7s-0.2-0.6-0.2-0.9c0-0.3,0.1-0.7,0.3-1c0.1-0.2,0.2-0.5,0.4-0.6
			c0.2-0.2,0.3-0.3,0.5-0.4c0.2-0.1,0.4-0.2,0.6-0.2s0.5,0,0.8,0l-0.2,0.4c-0.2,0-0.4,0-0.5,0s-0.3,0.1-0.5,0.2
			c-0.1,0.1-0.3,0.2-0.4,0.3c-0.1,0.1-0.2,0.3-0.3,0.5c-0.1,0.3-0.2,0.6-0.2,0.8c0,0.3,0.1,0.5,0.2,0.7c0.1,0.2,0.3,0.4,0.5,0.6
			s0.5,0.4,0.8,0.5c0.3,0.1,0.5,0.2,0.8,0.2c0.3,0,0.5,0,0.8,0c0.2-0.1,0.5-0.2,0.7-0.3c0.2-0.2,0.4-0.4,0.5-0.6
			c0.1-0.1,0.1-0.3,0.1-0.4c0-0.1,0-0.3,0-0.4c0-0.2,0-0.3-0.1-0.5c-0.1-0.2-0.1-0.3-0.2-0.4c-0.1-0.1-0.2-0.3-0.4-0.4
			c-0.1-0.1-0.3-0.2-0.5-0.3L16.7,65.6z"/>
		<path class="st0" d="M19,61.3c0-0.1,0.1-0.2,0.1-0.3c0-0.1,0.1-0.2,0.1-0.3s0-0.1-0.1-0.2c-0.1-0.1-0.1-0.1-0.2-0.1
			c-0.2-0.1-0.4-0.1-0.6-0.1c-0.2,0.1-0.4,0.2-0.5,0.5c-0.1,0.1-0.1,0.3-0.2,0.4s0,0.2,0,0.3c0,0.1,0.1,0.2,0.1,0.3s0.2,0.2,0.3,0.3
			l-0.2,0.4c-0.2-0.1-0.3-0.2-0.4-0.4c-0.1-0.1-0.2-0.3-0.2-0.5c0-0.2,0-0.3,0-0.5s0.1-0.3,0.2-0.5c0.1-0.2,0.2-0.3,0.3-0.4
			c0.1-0.1,0.2-0.2,0.4-0.3s0.3-0.1,0.4-0.1c0.2,0,0.3,0.1,0.5,0.2l1.7,0.9c0.1,0.1,0.2,0.1,0.3,0.1c0.1,0,0.1-0.1,0.1-0.3l0.3,0.2
			c0,0,0,0.1,0,0.1c0,0.1,0,0.1-0.1,0.2c0,0.1-0.1,0.1-0.1,0.2c0,0.1-0.1,0.1-0.1,0.1c-0.1,0-0.1,0-0.2,0c-0.1,0-0.1,0-0.2,0
			c-0.1,0-0.1,0-0.2-0.1c0.1,0.2,0.1,0.5,0.1,0.7c0,0.2-0.1,0.5-0.2,0.7c-0.1,0.1-0.2,0.3-0.3,0.4c-0.1,0.1-0.2,0.2-0.4,0.2
			c-0.1,0.1-0.3,0.1-0.4,0.1s-0.3,0-0.5-0.1c-0.5-0.3-0.7-0.8-0.4-1.6L19,61.3z M19.5,60.7c0,0.2-0.1,0.4-0.1,0.5
			c-0.1,0.2-0.1,0.3-0.2,0.5c-0.1,0.3-0.2,0.6-0.2,0.8c0,0.2,0.1,0.4,0.4,0.5c0.1,0.1,0.2,0.1,0.3,0.1s0.2,0,0.3-0.1
			c0.1,0,0.2-0.1,0.2-0.2c0.1-0.1,0.1-0.2,0.2-0.2c0.1-0.1,0.1-0.3,0.2-0.5s0-0.3,0-0.5c0-0.1-0.1-0.3-0.1-0.4
			c-0.1-0.1-0.2-0.2-0.4-0.3L19.5,60.7z"/>
		<path class="st0" d="M22,60.3l-4.4-2.5l0.2-0.4l4.4,2.5L22,60.3z"/>
		<path class="st0" d="M23.8,56.2l-2.1-2.4l0.2-0.4l2.4,2.9l-0.2,0.4l-3-0.9l0,0l2.2,2.3l-0.3,0.4l-3.7-1l0.2-0.4l3.1,0.8l-2.2-2.4
			l0.2-0.4L23.8,56.2z"/>
		<path class="st0" d="M24.6,52.3c0-0.1,0.1-0.2,0.1-0.3c0-0.1,0.1-0.2,0.1-0.3c0-0.1,0-0.1-0.1-0.2c-0.1-0.1-0.1-0.1-0.2-0.1
			c-0.2-0.1-0.4-0.2-0.6-0.1c-0.2,0-0.4,0.2-0.6,0.5c-0.1,0.1-0.1,0.2-0.2,0.4c0,0.1-0.1,0.2-0.1,0.3c0,0.1,0,0.2,0.1,0.3
			c0.1,0.1,0.1,0.2,0.3,0.3l-0.2,0.4c-0.2-0.1-0.3-0.3-0.4-0.4c-0.1-0.2-0.1-0.3-0.1-0.5c0-0.2,0-0.3,0.1-0.5
			c0.1-0.2,0.2-0.3,0.3-0.5c0.1-0.1,0.2-0.3,0.3-0.4c0.1-0.1,0.3-0.2,0.4-0.2s0.3-0.1,0.4,0c0.2,0,0.3,0.1,0.5,0.2l1.6,1.1
			c0.1,0.1,0.2,0.1,0.3,0.1c0.1,0,0.1-0.1,0.2-0.3l0.3,0.2c0,0,0,0.1,0,0.1c0,0.1,0,0.1-0.1,0.2c0,0.1-0.1,0.1-0.1,0.1
			c0,0.1-0.1,0.1-0.2,0.1s-0.1,0-0.2,0c-0.1,0-0.1,0-0.2,0s-0.1-0.1-0.2-0.1c0.1,0.3,0.1,0.5,0,0.8c0,0.2-0.1,0.5-0.3,0.7
			c-0.1,0.1-0.2,0.2-0.3,0.3c-0.1,0.1-0.2,0.2-0.4,0.2c-0.1,0-0.3,0.1-0.4,0c-0.1,0-0.3-0.1-0.4-0.2c-0.5-0.4-0.6-0.9-0.2-1.7
			L24.6,52.3z M25.2,51.8c0,0.2-0.1,0.4-0.2,0.5s-0.2,0.3-0.3,0.5c-0.2,0.3-0.2,0.5-0.2,0.7s0.1,0.4,0.3,0.5
			c0.1,0.1,0.2,0.1,0.3,0.1c0.1,0,0.2,0,0.3,0c0.1,0,0.2-0.1,0.2-0.1c0.1-0.1,0.1-0.1,0.2-0.2c0.1-0.1,0.2-0.3,0.2-0.4
			c0.1-0.2,0.1-0.3,0.1-0.5s0-0.3-0.1-0.4c-0.1-0.1-0.2-0.3-0.3-0.4L25.2,51.8z"/>
		<path class="st0" d="M28.3,52.3c0,0,0.1-0.1,0.1-0.1c0,0,0.1-0.1,0.1-0.1c0.1-0.1,0.1-0.2,0.1-0.3c0-0.1-0.1-0.2-0.1-0.3
			s-0.1-0.2-0.2-0.3c-0.1-0.1-0.1-0.2-0.2-0.3l-3.8-1.1l0.3-0.4l3.2,0.9l-1.8-2.8l0.3-0.4l2.1,3.2c0.1,0.2,0.2,0.4,0.3,0.6
			c0.1,0.2,0.2,0.3,0.2,0.5s0.1,0.3,0.1,0.4c0,0.1-0.1,0.2-0.1,0.4c0,0.1-0.1,0.1-0.1,0.2c0,0-0.1,0.1-0.1,0.1L28.3,52.3z"/>
	</g>
	<g>
		<g>
			<polygon class="st2" points="84,88.5 62.9,0.1 90.5,39.7 			"/>
			<polygon class="st2" points="123.8,107.1 83.1,135 79.9,48.4 96.6,44.4 			"/>
			<polygon class="st0" points="62.9,135 59.5,135 52.9,55.7 79.3,100.5 79.3,106 			"/>
			<polygon class="st0" points="101.7,45.3 79.3,29.7 80.8,74.7 			"/>
			<polygon class="st2" points="53.9,16.1 78,97.5 80.8,74.7 72.5,47.4 			"/>
			<polygon class="st2" points="52.9,48.4 66.1,57.1 78,97.5 			"/>
			<path class="st2" d="M35.4,46.8L78,104l-42.6,31C35.4,135-6.8,98.5,35.4,46.8z"/>
			<polygon class="st0" points="83.1,135 82.1,71.3 62.9,0.1 78.2,75.3 77.8,135 			"/>
		</g>
	</g>
</g>
</svg>
