<?xml version="1.0" encoding="utf-8"?>
<!-- Generator: Adobe Illustrator 21.1.0, SVG Export Plug-In . SVG Version: 6.00 Build 0)  -->
<svg version="1.1" id="Layer_1" xmlns="http://www.w3.org/2000/svg" xmlns:xlink="http://www.w3.org/1999/xlink" x="0px" y="0px"
	 viewBox="0 0 182.9 182.2" style="enable-background:new 0 0 182.9 182.2;" xml:space="preserve">
<style type="text/css">
	.st0{fill:url(#SVGID_1_);}
	.st1{fill:url(#SVGID_2_);}
	.st2{fill:url(#SVGID_3_);}
	.st3{fill:url(#SVGID_4_);}
	.st4{fill:url(#SVGID_5_);}
	.st5{fill:url(#SVGID_6_);}
	.st6{fill:url(#SVGID_7_);}
	.st7{fill:url(#SVGID_8_);}
	.st8{fill:#0394BB;}
	.st9{fill:url(#SVGID_9_);}
</style>
<g>
	
		<linearGradient id="SVGID_1_" gradientUnits="userSpaceOnUse" x1="18.35" y1="51.6479" x2="18.35" y2="14.7479" gradientTransform="matrix(1 0 0 -1 0 183.28)">
		<stop  offset="0" style="stop-color:#9FD18B"/>
		<stop  offset="1" style="stop-color:#0094BB"/>
	</linearGradient>
	<path class="st0" d="M29.9,137.7h-8v26.4c0,1.5-0.3,2.6-1,3.4c-0.7,0.7-1.6,1.1-2.6,1.1c-1.1,0-2-0.4-2.7-1.1c-0.7-0.7-1-1.9-1-3.4
		v-26.4h-8c-1.3,0-2.2-0.3-2.8-0.8c-0.6-0.6-0.9-1.3-0.9-2.2s0.3-1.7,1-2.2c0.6-0.5,1.6-0.8,2.8-0.8h23.4c1.3,0,2.2,0.3,2.8,0.8
		c0.6,0.6,0.9,1.3,0.9,2.2s-0.3,1.6-0.9,2.2C32.1,137.4,31.2,137.7,29.9,137.7z"/>
	
		<linearGradient id="SVGID_2_" gradientUnits="userSpaceOnUse" x1="45.9" y1="42.28" x2="45.9" y2="14.7588" gradientTransform="matrix(1 0 0 -1 0 183.28)">
		<stop  offset="0" style="stop-color:#9FD18B"/>
		<stop  offset="1" style="stop-color:#0094BB"/>
	</linearGradient>
	<path class="st1" d="M53.2,156.5H40c0,1.5,0.3,2.9,0.9,4.1c0.6,1.2,1.4,2.1,2.4,2.6c1,0.6,2.1,0.9,3.3,0.9c0.8,0,1.5-0.1,2.2-0.3
		s1.3-0.5,1.9-0.9c0.6-0.4,1.2-0.8,1.7-1.3s1.2-1.1,2.1-1.9c0.3-0.3,0.8-0.4,1.5-0.4s1.3,0.2,1.7,0.6c0.4,0.4,0.6,0.9,0.6,1.6
		c0,0.6-0.2,1.3-0.7,2.1s-1.2,1.6-2.2,2.4c-1,0.8-2.2,1.4-3.6,1.9c-1.5,0.5-3.1,0.7-5,0.7c-4.3,0-7.7-1.2-10.1-3.7
		c-2.4-2.5-3.6-5.8-3.6-10.1c0-2,0.3-3.8,0.9-5.6c0.6-1.7,1.5-3.2,2.6-4.4s2.5-2.2,4.2-2.8c1.7-0.7,3.5-1,5.5-1
		c2.6,0,4.9,0.6,6.8,1.7c1.9,1.1,3.3,2.6,4.2,4.3c0.9,1.8,1.4,3.6,1.4,5.4c0,1.7-0.5,2.8-1.5,3.3C56.4,156.2,55,156.5,53.2,156.5z
		 M40,152.6h12.3c-0.2-2.3-0.8-4-1.9-5.2c-1.1-1.1-2.5-1.7-4.3-1.7c-1.7,0-3.1,0.6-4.1,1.7C40.9,148.6,40.3,150.3,40,152.6z"/>
	
		<linearGradient id="SVGID_3_" gradientUnits="userSpaceOnUse" x1="76.15" y1="42.2676" x2="76.15" y2="14.7464" gradientTransform="matrix(1 0 0 -1 0 183.28)">
		<stop  offset="0" style="stop-color:#9FD18B"/>
		<stop  offset="1" style="stop-color:#0094BB"/>
	</linearGradient>
	<path class="st2" d="M81.6,164.7c-1.6,1.3-3.2,2.2-4.7,2.9c-1.5,0.6-3.2,1-5.1,1c-1.7,0-3.3-0.3-4.6-1c-1.3-0.7-2.3-1.6-3-2.8
		c-0.7-1.2-1.1-2.4-1.1-3.8c0-1.8,0.6-3.4,1.8-4.7c1.2-1.3,2.8-2.2,4.8-2.6c0.4-0.1,1.5-0.3,3.2-0.7c1.7-0.3,3.2-0.7,4.4-1
		c1.2-0.3,2.5-0.6,3.9-1.1c-0.1-1.8-0.4-3.1-1.1-3.9c-0.6-0.8-2-1.2-3.9-1.2c-1.7,0-3,0.2-3.9,0.7s-1.6,1.2-2.2,2.2
		s-1.1,1.6-1.3,1.9c-0.3,0.3-0.8,0.5-1.6,0.5c-0.8,0-1.4-0.2-2-0.7s-0.8-1.1-0.8-1.9c0-1.2,0.4-2.3,1.3-3.5c0.8-1.1,2.2-2,3.9-2.8
		c1.8-0.7,4-1.1,6.7-1.1c3,0,5.3,0.4,7,1.1c1.7,0.7,2.9,1.8,3.6,3.3s1.1,3.5,1.1,6c0,1.6,0,2.9,0,4s0,2.3,0,3.7c0,1.3,0.2,2.6,0.6,4
		s0.6,2.3,0.6,2.7c0,0.7-0.3,1.3-1,1.9c-0.7,0.6-1.4,0.9-2.2,0.9c-0.7,0-1.4-0.3-2.1-1C83.1,166.9,82.3,166,81.6,164.7z M81.1,154.9
		c-1,0.4-2.4,0.7-4.3,1.2c-1.9,0.4-3.2,0.7-3.9,0.9c-0.7,0.2-1.4,0.6-2.1,1.1c-0.7,0.6-1,1.3-1,2.3s0.4,1.9,1.2,2.6
		c0.8,0.7,1.8,1.1,3,1.1c1.3,0,2.6-0.3,3.7-0.9c1.1-0.6,2-1.3,2.5-2.3c0.6-1,0.9-2.7,0.9-5C81.1,155.9,81.1,154.9,81.1,154.9z"/>
	
		<linearGradient id="SVGID_4_" gradientUnits="userSpaceOnUse" x1="106.55" y1="42.2182" x2="106.55" y2="14.7464" gradientTransform="matrix(1 0 0 -1 0 183.28)">
		<stop  offset="0" style="stop-color:#9FD18B"/>
		<stop  offset="1" style="stop-color:#0094BB"/>
	</linearGradient>
	<path class="st3" d="M100.8,144.8v0.8c1.2-1.6,2.5-2.7,3.9-3.5c1.4-0.7,3-1.1,4.9-1.1c1.8,0,3.4,0.4,4.8,1.2s2.5,1.9,3.1,3.3
		c0.4,0.8,0.7,1.7,0.9,2.7c0.1,1,0.2,2.2,0.2,3.7v12.6c0,1.4-0.3,2.4-0.9,3.1c-0.6,0.7-1.4,1-2.4,1s-1.8-0.4-2.5-1.1
		c-0.6-0.7-0.9-1.7-0.9-3v-11.3c0-2.2-0.3-3.9-0.9-5.1s-1.9-1.8-3.7-1.8c-1.2,0-2.3,0.4-3.3,1.1c-1,0.7-1.7,1.7-2.2,3
		c-0.3,1-0.5,2.9-0.5,5.6v8.5c0,1.4-0.3,2.4-1,3.1c-0.6,0.7-1.5,1-2.5,1s-1.8-0.4-2.4-1.1c-0.6-0.7-0.9-1.7-0.9-3V145
		c0-1.3,0.3-2.2,0.8-2.9c0.6-0.6,1.3-1,2.3-1c0.6,0,1.1,0.1,1.6,0.4c0.5,0.3,0.9,0.7,1.2,1.3C100.6,143.3,100.8,144,100.8,144.8z"/>
	
		<linearGradient id="SVGID_5_" gradientUnits="userSpaceOnUse" x1="136.9" y1="42.2182" x2="136.9" y2="4.7182" gradientTransform="matrix(1 0 0 -1 0 183.28)">
		<stop  offset="0" style="stop-color:#9FD18B"/>
		<stop  offset="1" style="stop-color:#0094BB"/>
	</linearGradient>
	<path class="st4" d="M150.1,146v19.6c0,2.2-0.2,4.2-0.7,5.8s-1.2,3-2.3,4c-1.1,1.1-2.4,1.8-4.1,2.4c-1.7,0.5-3.8,0.8-6.4,0.8
		c-2.3,0-4.4-0.3-6.2-1s-3.2-1.5-4.2-2.5s-1.5-2.1-1.5-3.2c0-0.8,0.3-1.5,0.8-2c0.6-0.5,1.2-0.8,2-0.8c1,0,1.9,0.4,2.6,1.3
		c0.4,0.4,0.7,0.9,1.1,1.3c0.4,0.5,0.8,0.8,1.3,1.2c0.5,0.3,1,0.6,1.7,0.7c0.7,0.2,1.4,0.2,2.3,0.2c1.7,0,3.1-0.2,4.1-0.7
		s1.6-1.2,2-2c0.4-0.9,0.6-1.8,0.7-2.8c0.1-1,0.1-2.6,0.1-4.8c-1,1.5-2.2,2.6-3.6,3.3c-1.4,0.8-3,1.1-4.9,1.1
		c-2.3,0-4.2-0.6-5.9-1.7c-1.7-1.2-3-2.8-3.9-4.9c-0.9-2.1-1.4-4.5-1.4-7.2c0-2,0.3-3.9,0.8-5.5s1.3-3,2.4-4.1c1-1.1,2.2-2,3.5-2.5
		c1.3-0.6,2.8-0.9,4.4-0.9c1.9,0,3.6,0.4,5,1.1c1.4,0.7,2.7,1.9,3.9,3.5v-0.9c0-1.2,0.3-2.1,0.9-2.7c0.6-0.6,1.3-1,2.2-1
		c1.3,0,2.2,0.4,2.6,1.3C149.9,143.2,150.1,144.4,150.1,146z M130.5,154.6c0,2.7,0.6,4.8,1.8,6.2s2.7,2.1,4.6,2.1
		c1.1,0,2.2-0.3,3.2-0.9c1-0.6,1.8-1.5,2.4-2.7c0.6-1.2,0.9-2.7,0.9-4.4c0-2.8-0.6-4.9-1.8-6.4s-2.8-2.3-4.8-2.3
		c-1.9,0-3.5,0.7-4.6,2.2C131.1,149.8,130.5,151.9,130.5,154.6z"/>
	
		<linearGradient id="SVGID_6_" gradientUnits="userSpaceOnUse" x1="167.25" y1="42.2676" x2="167.25" y2="14.7464" gradientTransform="matrix(1 0 0 -1 0 183.28)">
		<stop  offset="0" style="stop-color:#9FD18B"/>
		<stop  offset="1" style="stop-color:#0094BB"/>
	</linearGradient>
	<path class="st5" d="M172.7,164.7c-1.6,1.3-3.2,2.2-4.7,2.9c-1.5,0.6-3.2,1-5.1,1c-1.7,0-3.3-0.3-4.6-1s-2.3-1.6-3-2.8
		s-1.1-2.4-1.1-3.8c0-1.8,0.6-3.4,1.8-4.7s2.8-2.2,4.8-2.6c0.4-0.1,1.5-0.3,3.2-0.7c1.7-0.3,3.2-0.7,4.4-1s2.5-0.6,3.9-1.1
		c-0.1-1.8-0.4-3.1-1.1-3.9c-0.6-0.8-2-1.2-3.9-1.2c-1.7,0-3,0.2-3.9,0.7s-1.6,1.2-2.2,2.2c-0.6,1-1.1,1.6-1.3,1.9
		c-0.3,0.3-0.8,0.5-1.6,0.5s-1.4-0.2-2-0.7s-0.8-1.1-0.8-1.9c0-1.2,0.4-2.3,1.3-3.5c0.8-1.1,2.2-2,3.9-2.8c1.8-0.7,4-1.1,6.7-1.1
		c3,0,5.3,0.4,7,1.1c1.7,0.7,2.9,1.8,3.6,3.3c0.7,1.5,1.1,3.5,1.1,6c0,1.6,0,2.9,0,4s0,2.3,0,3.7c0,1.3,0.2,2.6,0.6,4
		c0.4,1.4,0.6,2.3,0.6,2.7c0,0.7-0.3,1.3-1,1.9c-0.7,0.6-1.4,0.9-2.2,0.9c-0.7,0-1.4-0.3-2.1-1C174.2,166.9,173.5,166,172.7,164.7z
		 M172.3,154.9c-1,0.4-2.4,0.7-4.3,1.2c-1.9,0.4-3.2,0.7-3.9,0.9s-1.4,0.6-2.1,1.1c-0.7,0.6-1,1.3-1,2.3s0.4,1.9,1.2,2.6
		c0.8,0.7,1.8,1.1,3,1.1c1.3,0,2.6-0.3,3.7-0.9c1.1-0.6,2-1.3,2.5-2.3c0.6-1,0.9-2.7,0.9-5L172.3,154.9L172.3,154.9z"/>
</g>
<g>
	<g>
		<g>
			
				<linearGradient id="SVGID_7_" gradientUnits="userSpaceOnUse" x1="37.3754" y1="145.3591" x2="107.7774" y2="74.957" gradientTransform="matrix(1 0 0 -1 0 183.79)">
				<stop  offset="0" style="stop-color:#4A002B"/>
				<stop  offset="7.297676e-02" style="stop-color:#891C56"/>
				<stop  offset="0.4344" style="stop-color:#ED1651"/>
				<stop  offset="1" style="stop-color:#C6168D"/>
			</linearGradient>
			<path class="st6" d="M34.4,44.1c3.4-8.6,11.8-14.7,21.6-14.7h4.7c-2.6,0-4.6,0.6-6,1.8c-1.5,1.3-2.2,3-2.2,5.2
				c0,2.1,0.7,3.8,2.1,5.1c1.4,1.3,3.4,1.9,6.1,1.9C73.6,43.4,84,53.9,84,66.7v21.7V90c0,11.2,8,20.7,18.6,23
				c0.7-0.3,1.4-0.7,2.1-1.1c-3.7,2.1-7.9,3.3-12.5,3.3c-7.2,0-13.5-2.7-18.2-7.8c-4.5-4.9-6.8-11.4-6.8-19.5v-21
				c0-4.7-3.8-8.5-8.5-8.5h-0.9c-7.3,0-13.3-2.1-17.7-6.1C37.6,50,35.7,47.2,34.4,44.1L34.4,44.1z"/>
		</g>
		
			<linearGradient id="SVGID_8_" gradientUnits="userSpaceOnUse" x1="147.431" y1="143.5685" x2="86.11" y2="82.2475" gradientTransform="matrix(1 0 0 -1 0 183.79)">
			<stop  offset="0" style="stop-color:#FFF450"/>
			<stop  offset="0.7864" style="stop-color:#F37043"/>
			<stop  offset="0.8446" style="stop-color:#F16F42"/>
			<stop  offset="0.8775" style="stop-color:#E86A3F"/>
			<stop  offset="0.904" style="stop-color:#DB633A"/>
			<stop  offset="0.9271" style="stop-color:#C75932"/>
			<stop  offset="0.948" style="stop-color:#AD4B28"/>
			<stop  offset="0.9671" style="stop-color:#8E3B1D"/>
			<stop  offset="0.9808" style="stop-color:#732C12"/>
		</linearGradient>
		<path class="st7" d="M100.4,66.6v21.7c0,3.1-0.8,5.6-2.2,7.2c-1.5,1.6-3.5,2.5-5.9,2.5s-4.4-0.8-5.9-2.5c-1.5-1.6-2.3-4-2.3-7.1
			V90c0,11.2,8,20.7,18.6,23c2.9-1.3,5.5-3.2,7.8-5.6c4.5-4.8,6.7-11.4,6.7-19.5v-21c0-4.7,3.8-8.5,8.5-8.5h0.9c7.2,0,13.2-2,17.7-6
			c4.4-3.9,6.2-9.1,6.2-9.1h-26.7C110.8,43.3,100.4,53.8,100.4,66.6z"/>
	</g>
	<circle class="st8" cx="110.1" cy="13.8" r="2.6"/>
	<circle class="st8" cx="107.9" cy="20.5" r="2.6"/>
	<circle class="st8" cx="105" cy="27.2" r="2.6"/>
	<circle class="st8" cx="118.8" cy="11.5" r="2.2"/>
	<circle class="st8" cx="127.5" cy="9.4" r="1.9"/>
	<circle class="st8" cx="124.5" cy="16.2" r="1.9"/>
	<circle class="st8" cx="121.5" cy="23.4" r="1.7"/>
	<circle class="st8" cx="131.4" cy="15.1" r="1.6"/>
	<circle class="st8" cx="134.7" cy="7.8" r="1.6"/>
	<circle class="st8" cx="116.7" cy="18.3" r="2.2"/>
	<circle class="st8" cx="113.7" cy="26.1" r="2.2"/>
	<linearGradient id="SVGID_9_" gradientUnits="userSpaceOnUse" x1="32.8099" y1="28.1989" x2="103.3476" y2="28.1989">
		<stop  offset="0" style="stop-color:#9FD18B"/>
		<stop  offset="1" style="stop-color:#0094BB"/>
	</linearGradient>
	<path class="st9" d="M103.3,15.2c0-1.6-1.3-2.9-2.9-2.9l-42.6,0c-7,0-12.8,2-17.3,5.8c-5,4.3-7.8,10.4-7.8,17.3
		c0,3.1,0.6,6,1.6,8.7c3.4-8.6,11.9-14.8,21.7-14.8h42.4l0,0c1.6,0,2.9-1.3,2.9-2.9c0-1.3-0.9-2.4-2-2.7c0,0,0.1,0,0.1,0
		c1.6,0,2.9-1.3,2.9-2.9c0-1.3-0.9-2.4-2-2.7c0,0,0.1,0,0.1,0C102.1,18.1,103.3,16.8,103.3,15.2z"/>
</g>
</svg>
