<?xml version="1.0" encoding="utf-8"?>
<!-- Generator: Adobe Illustrator 21.1.0, SVG Export Plug-In . SVG Version: 6.00 Build 0)  -->
<svg version="1.1" id="Layer_1" xmlns="http://www.w3.org/2000/svg" xmlns:xlink="http://www.w3.org/1999/xlink" x="0px" y="0px"
	 viewBox="0 0 233 56.6" style="enable-background:new 0 0 233 56.6;" xml:space="preserve">
<style type="text/css">
	.st0{fill:url(#SVGID_1_);}
	.st1{fill:url(#SVGID_2_);}
	.st2{fill:url(#SVGID_3_);}
	.st3{fill:url(#SVGID_4_);}
	.st4{fill:url(#SVGID_5_);}
	.st5{fill:url(#SVGID_6_);}
	.st6{fill:url(#SVGID_7_);}
	.st7{fill:url(#SVGID_8_);}
	.st8{fill:#0394BB;}
	.st9{fill:url(#SVGID_9_);}
</style>
<g>
	
		<linearGradient id="SVGID_1_" gradientUnits="userSpaceOnUse" x1="68.4617" y1="419.9716" x2="68.4617" y2="456.8716" gradientTransform="matrix(1 0 0 1 0 -412)">
		<stop  offset="0" style="stop-color:#9FD18B"/>
		<stop  offset="1" style="stop-color:#0094BB"/>
	</linearGradient>
	<path class="st0" d="M80,14h-8v26.4c0,1.5-0.3,2.6-1,3.4c-0.7,0.7-1.6,1.1-2.6,1.1c-1.1,0-2-0.4-2.7-1.1c-0.7-0.7-1-1.9-1-3.4V14
		h-8c-1.3,0-2.2-0.3-2.8-0.8C53.3,12.6,53,11.9,53,11s0.3-1.7,1-2.2C54.6,8.3,55.6,8,56.8,8h23.4c1.3,0,2.2,0.3,2.8,0.8
		c0.6,0.6,0.9,1.3,0.9,2.2s-0.3,1.6-0.9,2.2C82.2,13.7,81.3,14,80,14z"/>
	
		<linearGradient id="SVGID_2_" gradientUnits="userSpaceOnUse" x1="96.0117" y1="429.3395" x2="96.0117" y2="456.8607" gradientTransform="matrix(1 0 0 1 0 -412)">
		<stop  offset="0" style="stop-color:#9FD18B"/>
		<stop  offset="1" style="stop-color:#0094BB"/>
	</linearGradient>
	<path class="st1" d="M103.3,32.8H90.1c0,1.5,0.3,2.9,0.9,4.1c0.6,1.2,1.4,2.1,2.4,2.6c1,0.6,2.1,0.9,3.3,0.9c0.8,0,1.5-0.1,2.2-0.3
		c0.7-0.2,1.3-0.5,1.9-0.9s1.2-0.8,1.7-1.3s1.2-1.1,2.1-1.9c0.3-0.3,0.8-0.4,1.5-0.4c0.7,0,1.3,0.2,1.7,0.6c0.4,0.4,0.6,0.9,0.6,1.6
		c0,0.6-0.2,1.3-0.7,2.1s-1.2,1.6-2.2,2.4c-1,0.8-2.2,1.4-3.6,1.9c-1.5,0.5-3.1,0.7-5,0.7c-4.3,0-7.7-1.2-10.1-3.7
		s-3.6-5.8-3.6-10.1c0-2,0.3-3.8,0.9-5.6c0.6-1.7,1.5-3.2,2.6-4.4s2.5-2.2,4.2-2.8c1.7-0.7,3.5-1,5.5-1c2.6,0,4.9,0.6,6.8,1.7
		c1.9,1.1,3.3,2.6,4.2,4.3c0.9,1.8,1.4,3.6,1.4,5.4c0,1.7-0.5,2.8-1.5,3.3C106.5,32.5,105.1,32.8,103.3,32.8z M90.1,28.9h12.3
		c-0.2-2.3-0.8-4-1.9-5.2C99.4,22.6,98,22,96.2,22c-1.7,0-3.1,0.6-4.1,1.7C91,24.9,90.4,26.6,90.1,28.9z"/>
	
		<linearGradient id="SVGID_3_" gradientUnits="userSpaceOnUse" x1="126.2617" y1="429.3519" x2="126.2617" y2="456.8731" gradientTransform="matrix(1 0 0 1 0 -412)">
		<stop  offset="0" style="stop-color:#9FD18B"/>
		<stop  offset="1" style="stop-color:#0094BB"/>
	</linearGradient>
	<path class="st2" d="M131.7,41c-1.6,1.3-3.2,2.2-4.7,2.9c-1.5,0.6-3.2,1-5.1,1c-1.7,0-3.3-0.3-4.6-1c-1.3-0.7-2.3-1.6-3-2.8
		s-1.1-2.4-1.1-3.8c0-1.8,0.6-3.4,1.8-4.7c1.2-1.3,2.8-2.2,4.8-2.6c0.4-0.1,1.5-0.3,3.2-0.7c1.7-0.3,3.2-0.7,4.4-1
		c1.2-0.3,2.5-0.6,3.9-1.1c-0.1-1.8-0.4-3.1-1.1-3.9c-0.6-0.8-2-1.2-3.9-1.2c-1.7,0-3,0.2-3.9,0.7s-1.6,1.2-2.2,2.2
		s-1.1,1.6-1.3,1.9c-0.3,0.3-0.8,0.5-1.6,0.5c-0.8,0-1.4-0.2-2-0.7s-0.8-1.1-0.8-1.9c0-1.2,0.4-2.3,1.3-3.5c0.8-1.1,2.2-2,3.9-2.8
		c1.8-0.7,4-1.1,6.7-1.1c3,0,5.3,0.4,7,1.1c1.7,0.7,2.9,1.8,3.6,3.3s1.1,3.5,1.1,6c0,1.6,0,2.9,0,4c0,1.1,0,2.3,0,3.7
		c0,1.3,0.2,2.6,0.6,4c0.4,1.4,0.6,2.3,0.6,2.7c0,0.7-0.3,1.3-1,1.9c-0.7,0.6-1.4,0.9-2.2,0.9c-0.7,0-1.4-0.3-2.1-1
		C133.2,43.2,132.4,42.3,131.7,41z M131.2,31.2c-1,0.4-2.4,0.7-4.3,1.2c-1.9,0.4-3.2,0.7-3.9,0.9c-0.7,0.2-1.4,0.6-2.1,1.1
		c-0.7,0.6-1,1.3-1,2.3s0.4,1.9,1.2,2.6c0.8,0.7,1.8,1.1,3,1.1c1.3,0,2.6-0.3,3.7-0.9c1.1-0.6,2-1.3,2.5-2.3c0.6-1,0.9-2.7,0.9-5
		C131.2,32.2,131.2,31.2,131.2,31.2z"/>
	
		<linearGradient id="SVGID_4_" gradientUnits="userSpaceOnUse" x1="156.6617" y1="429.4013" x2="156.6617" y2="456.8731" gradientTransform="matrix(1 0 0 1 0 -412)">
		<stop  offset="0" style="stop-color:#9FD18B"/>
		<stop  offset="1" style="stop-color:#0094BB"/>
	</linearGradient>
	<path class="st3" d="M150.9,21.1v0.8c1.2-1.6,2.5-2.7,3.9-3.5c1.4-0.7,3-1.1,4.9-1.1c1.8,0,3.4,0.4,4.8,1.2
		c1.4,0.8,2.5,1.9,3.1,3.3c0.4,0.8,0.7,1.7,0.9,2.7c0.1,1,0.2,2.2,0.2,3.7v12.6c0,1.4-0.3,2.4-0.9,3.1c-0.6,0.7-1.4,1-2.4,1
		s-1.8-0.4-2.5-1.1c-0.6-0.7-0.9-1.7-0.9-3V29.5c0-2.2-0.3-3.9-0.9-5.1c-0.6-1.2-1.9-1.8-3.7-1.8c-1.2,0-2.3,0.4-3.3,1.1
		c-1,0.7-1.7,1.7-2.2,3c-0.3,1-0.5,2.9-0.5,5.6v8.5c0,1.4-0.3,2.4-1,3.1c-0.6,0.7-1.5,1-2.5,1s-1.8-0.4-2.4-1.1
		c-0.6-0.7-0.9-1.7-0.9-3V21.3c0-1.3,0.3-2.2,0.8-2.9c0.6-0.6,1.3-1,2.3-1c0.6,0,1.1,0.1,1.6,0.4c0.5,0.3,0.9,0.7,1.2,1.3
		C150.7,19.6,150.9,20.3,150.9,21.1z"/>
	
		<linearGradient id="SVGID_5_" gradientUnits="userSpaceOnUse" x1="187.0117" y1="429.4013" x2="187.0117" y2="466.9013" gradientTransform="matrix(1 0 0 1 0 -412)">
		<stop  offset="0" style="stop-color:#9FD18B"/>
		<stop  offset="1" style="stop-color:#0094BB"/>
	</linearGradient>
	<path class="st4" d="M200.2,22.3v19.6c0,2.2-0.2,4.2-0.7,5.8s-1.2,3-2.3,4c-1.1,1.1-2.4,1.8-4.1,2.4c-1.7,0.5-3.8,0.8-6.4,0.8
		c-2.3,0-4.4-0.3-6.2-1s-3.2-1.5-4.2-2.5s-1.5-2.1-1.5-3.2c0-0.8,0.3-1.5,0.8-2c0.6-0.5,1.2-0.8,2-0.8c1,0,1.9,0.4,2.6,1.3
		c0.4,0.4,0.7,0.9,1.1,1.3c0.4,0.5,0.8,0.8,1.3,1.2c0.5,0.3,1,0.6,1.7,0.7c0.7,0.2,1.4,0.2,2.3,0.2c1.7,0,3.1-0.2,4.1-0.7
		s1.6-1.2,2-2c0.4-0.9,0.6-1.8,0.7-2.8c0.1-1,0.1-2.6,0.1-4.8c-1,1.5-2.2,2.6-3.6,3.3c-1.4,0.8-3,1.1-4.9,1.1
		c-2.3,0-4.2-0.6-5.9-1.7c-1.7-1.2-3-2.8-3.9-4.9c-0.9-2.1-1.4-4.5-1.4-7.2c0-2,0.3-3.9,0.8-5.5s1.3-3,2.4-4.1c1-1.1,2.2-2,3.5-2.5
		c1.3-0.6,2.8-0.9,4.4-0.9c1.9,0,3.6,0.4,5,1.1c1.4,0.7,2.7,1.9,3.9,3.5v-0.9c0-1.2,0.3-2.1,0.9-2.7c0.6-0.6,1.3-1,2.2-1
		c1.3,0,2.2,0.4,2.6,1.3C200,19.5,200.2,20.7,200.2,22.3z M180.6,30.9c0,2.7,0.6,4.8,1.8,6.2s2.7,2.1,4.6,2.1c1.1,0,2.2-0.3,3.2-0.9
		c1-0.6,1.8-1.5,2.4-2.7c0.6-1.2,0.9-2.7,0.9-4.4c0-2.8-0.6-4.9-1.8-6.4s-2.8-2.3-4.8-2.3c-1.9,0-3.5,0.7-4.6,2.2
		C181.2,26.1,180.6,28.2,180.6,30.9z"/>
	
		<linearGradient id="SVGID_6_" gradientUnits="userSpaceOnUse" x1="217.3617" y1="429.3519" x2="217.3617" y2="456.8731" gradientTransform="matrix(1 0 0 1 0 -412)">
		<stop  offset="0" style="stop-color:#9FD18B"/>
		<stop  offset="1" style="stop-color:#0094BB"/>
	</linearGradient>
	<path class="st5" d="M222.8,41c-1.6,1.3-3.2,2.2-4.7,2.9c-1.5,0.6-3.2,1-5.1,1c-1.7,0-3.3-0.3-4.6-1s-2.3-1.6-3-2.8
		s-1.1-2.4-1.1-3.8c0-1.8,0.6-3.4,1.8-4.7c1.2-1.3,2.8-2.2,4.8-2.6c0.4-0.1,1.5-0.3,3.2-0.7c1.7-0.3,3.2-0.7,4.4-1s2.5-0.6,3.9-1.1
		c-0.1-1.8-0.4-3.1-1.1-3.9c-0.6-0.8-2-1.2-3.9-1.2c-1.7,0-3,0.2-3.9,0.7s-1.6,1.2-2.2,2.2c-0.6,1-1.1,1.6-1.3,1.9
		c-0.3,0.3-0.8,0.5-1.6,0.5s-1.4-0.2-2-0.7s-0.8-1.1-0.8-1.9c0-1.2,0.4-2.3,1.3-3.5c0.8-1.1,2.2-2,3.9-2.8c1.8-0.7,4-1.1,6.7-1.1
		c3,0,5.3,0.4,7,1.1c1.7,0.7,2.9,1.8,3.6,3.3c0.7,1.5,1.1,3.5,1.1,6c0,1.6,0,2.9,0,4c0,1.1,0,2.3,0,3.7c0,1.3,0.2,2.6,0.6,4
		c0.4,1.4,0.6,2.3,0.6,2.7c0,0.7-0.3,1.3-1,1.9c-0.7,0.6-1.4,0.9-2.2,0.9c-0.7,0-1.4-0.3-2.1-1C224.3,43.2,223.6,42.3,222.8,41z
		 M222.4,31.2c-1,0.4-2.4,0.7-4.3,1.2c-1.9,0.4-3.2,0.7-3.9,0.9s-1.4,0.6-2.1,1.1c-0.7,0.6-1,1.3-1,2.3s0.4,1.9,1.2,2.6
		c0.8,0.7,1.8,1.1,3,1.1c1.3,0,2.6-0.3,3.7-0.9c1.1-0.6,2-1.3,2.5-2.3c0.6-1,0.9-2.7,0.9-5L222.4,31.2L222.4,31.2z"/>
</g>
<g>
	<g>
		<g>
			
				<linearGradient id="SVGID_7_" gradientUnits="userSpaceOnUse" x1="3.3263" y1="426.8952" x2="30.5978" y2="454.1668" gradientTransform="matrix(1 0 0 1 0 -411.4901)">
				<stop  offset="0" style="stop-color:#4A002B"/>
				<stop  offset="7.297676e-02" style="stop-color:#891C56"/>
				<stop  offset="0.4344" style="stop-color:#ED1651"/>
				<stop  offset="1" style="stop-color:#C6168D"/>
			</linearGradient>
			<path class="st6" d="M2.2,17.6c1.3-3.3,4.6-5.7,8.4-5.7h1.8c-1,0-1.8,0.2-2.3,0.7c-0.6,0.5-0.9,1.2-0.9,2c0,0.8,0.3,1.5,0.8,2
				c0.5,0.5,1.3,0.7,2.4,0.7c5,0,9,4.1,9,9v8.4v0.6c0,4.3,3.1,8,7.2,8.9c0.3-0.1,0.5-0.3,0.8-0.4c-1.4,0.8-3.1,1.3-4.8,1.3
				c-2.8,0-5.2-1-7.1-3c-1.7-1.9-2.6-4.4-2.6-7.6v-8.1c0-1.8-1.5-3.3-3.3-3.3h-0.3c-2.8,0-5.2-0.8-6.9-2.4
				C3.4,19.9,2.7,18.8,2.2,17.6L2.2,17.6z"/>
		</g>
		
			<linearGradient id="SVGID_8_" gradientUnits="userSpaceOnUse" x1="45.9584" y1="427.5888" x2="22.2045" y2="451.3427" gradientTransform="matrix(1 0 0 1 0 -411.4901)">
			<stop  offset="0" style="stop-color:#FFF450"/>
			<stop  offset="0.7864" style="stop-color:#F37043"/>
			<stop  offset="0.8446" style="stop-color:#F16F42"/>
			<stop  offset="0.8775" style="stop-color:#E86A3F"/>
			<stop  offset="0.904" style="stop-color:#DB633A"/>
			<stop  offset="0.9271" style="stop-color:#C75932"/>
			<stop  offset="0.948" style="stop-color:#AD4B28"/>
			<stop  offset="0.9671" style="stop-color:#8E3B1D"/>
			<stop  offset="0.9808" style="stop-color:#732C12"/>
		</linearGradient>
		<path class="st7" d="M27.7,26.3v8.4c0,1.2-0.3,2.2-0.9,2.8c-0.6,0.6-1.4,1-2.3,1c-0.9,0-1.7-0.3-2.3-1c-0.6-0.6-0.9-1.5-0.9-2.8
			v0.6c0,4.3,3.1,8,7.2,8.9c1.1-0.5,2.1-1.2,3-2.2c1.7-1.9,2.6-4.4,2.6-7.6v-8.1c0-1.8,1.5-3.3,3.3-3.3h0.3c2.8,0,5.1-0.8,6.9-2.3
			c1.7-1.5,2.4-3.5,2.4-3.5H36.8C31.8,17.3,27.7,21.4,27.7,26.3z"/>
	</g>
	<circle class="st8" cx="31.5" cy="5.9" r="1"/>
	<circle class="st8" cx="30.6" cy="8.5" r="1"/>
	<circle class="st8" cx="29.5" cy="11.1" r="1"/>
	<circle class="st8" cx="34.9" cy="5" r="0.9"/>
	<circle class="st8" cx="38.2" cy="4.2" r="0.7"/>
	<circle class="st8" cx="37.1" cy="6.8" r="0.7"/>
	<circle class="st8" cx="35.9" cy="9.6" r="0.7"/>
	<circle class="st8" cx="39.8" cy="6.4" r="0.6"/>
	<circle class="st8" cx="41" cy="3.5" r="0.6"/>
	<circle class="st8" cx="34.1" cy="7.6" r="0.9"/>
	<circle class="st8" cx="32.9" cy="10.6" r="0.9"/>
	
		<linearGradient id="SVGID_9_" gradientUnits="userSpaceOnUse" x1="1.5616" y1="-75.4832" x2="28.9098" y2="-75.4832" gradientTransform="matrix(1 0 0 -1 0 -64.041)">
		<stop  offset="0" style="stop-color:#9FD18B"/>
		<stop  offset="1" style="stop-color:#0094BB"/>
	</linearGradient>
	<path class="st9" d="M28.9,6.4c0-0.6-0.5-1.1-1.1-1.1H11.2c-2.7,0-5,0.8-6.7,2.2c-1.9,1.7-3,4-3,6.7c0,1.2,0.2,2.3,0.6,3.4
		c1.3-3.3,4.6-5.7,8.4-5.7H27l0,0c0.6,0,1.1-0.5,1.1-1.1c0-0.5-0.3-0.9-0.8-1h0c0.6,0,1.1-0.5,1.1-1.1c0-0.5-0.3-0.9-0.8-1h0
		C28.4,7.5,28.9,7,28.9,6.4z"/>
</g>
</svg>
