<?xml version="1.0" encoding="utf-8"?>
<!-- Generator: Adobe Illustrator 21.1.0, SVG Export Plug-In . SVG Version: 6.00 Build 0)  -->
<svg version="1.1" id="Layer_1" xmlns="http://www.w3.org/2000/svg" xmlns:xlink="http://www.w3.org/1999/xlink" x="0px" y="0px"
	 viewBox="0 0 124.7 121.9" style="enable-background:new 0 0 124.7 121.9;" xml:space="preserve">
<style type="text/css">
	.st0{fill:url(#SVGID_1_);}
	.st1{fill:url(#SVGID_2_);}
	.st2{fill:#0394BB;}
	.st3{fill:url(#SVGID_3_);}
</style>
<g>
	<g>
		<g>
			
				<linearGradient id="SVGID_1_" gradientUnits="userSpaceOnUse" x1="8.0655" y1="83.9595" x2="78.4675" y2="13.5575" gradientTransform="matrix(1 0 0 -1 0 123.79)">
				<stop  offset="0" style="stop-color:#4A002B"/>
				<stop  offset="7.297676e-02" style="stop-color:#891C56"/>
				<stop  offset="0.4344" style="stop-color:#ED1651"/>
				<stop  offset="1" style="stop-color:#C6168D"/>
			</linearGradient>
			<path class="st0" d="M5.1,45.5c3.4-8.6,11.8-14.7,21.6-14.7h4.7c-2.6,0-4.6,0.6-6,1.8c-1.5,1.3-2.2,3-2.2,5.2
				c0,2.1,0.7,3.8,2.1,5.1c1.4,1.3,3.4,1.9,6.1,1.9c12.9,0,23.3,10.5,23.3,23.3v21.7v1.6c0,11.2,8,20.7,18.6,23
				c0.7-0.3,1.4-0.7,2.1-1.1c-3.7,2.1-7.9,3.3-12.5,3.3c-7.2,0-13.5-2.7-18.2-7.8c-4.5-4.9-6.8-11.4-6.8-19.5v-21
				c0-4.7-3.8-8.5-8.5-8.5h-0.9c-7.3,0-13.3-2.1-17.7-6.1C8.3,51.4,6.4,48.6,5.1,45.5L5.1,45.5z"/>
		</g>
		
			<linearGradient id="SVGID_2_" gradientUnits="userSpaceOnUse" x1="118.1211" y1="82.1689" x2="56.8001" y2="20.8479" gradientTransform="matrix(1 0 0 -1 0 123.79)">
			<stop  offset="0" style="stop-color:#FFF450"/>
			<stop  offset="0.7864" style="stop-color:#F37043"/>
			<stop  offset="0.8446" style="stop-color:#F16F42"/>
			<stop  offset="0.8775" style="stop-color:#E86A3F"/>
			<stop  offset="0.904" style="stop-color:#DB633A"/>
			<stop  offset="0.9271" style="stop-color:#C75932"/>
			<stop  offset="0.948" style="stop-color:#AD4B28"/>
			<stop  offset="0.9671" style="stop-color:#8E3B1D"/>
			<stop  offset="0.9808" style="stop-color:#732C12"/>
		</linearGradient>
		<path class="st1" d="M71.1,68v21.7c0,3.1-0.8,5.6-2.2,7.2c-1.5,1.6-3.5,2.5-5.9,2.5s-4.4-0.8-5.9-2.5c-1.5-1.6-2.3-4-2.3-7.1v1.6
			c0,11.2,8,20.7,18.6,23c2.9-1.3,5.5-3.2,7.8-5.6c4.5-4.8,6.7-11.4,6.7-19.5v-21c0-4.7,3.8-8.5,8.5-8.5h0.9c7.2,0,13.2-2,17.7-6
			c4.4-3.9,6.2-9.1,6.2-9.1H94.5C81.5,44.7,71.1,55.2,71.1,68z"/>
	</g>
	<circle class="st2" cx="80.7" cy="15.2" r="2.6"/>
	<circle class="st2" cx="78.5" cy="21.9" r="2.6"/>
	<circle class="st2" cx="75.7" cy="28.6" r="2.6"/>
	<circle class="st2" cx="89.5" cy="12.9" r="2.2"/>
	<circle class="st2" cx="98.2" cy="10.8" r="1.9"/>
	<circle class="st2" cx="95.2" cy="17.6" r="1.9"/>
	<circle class="st2" cx="92.2" cy="24.7" r="1.7"/>
	<circle class="st2" cx="102.1" cy="16.5" r="1.6"/>
	<circle class="st2" cx="105.4" cy="9.2" r="1.6"/>
	<circle class="st2" cx="87.3" cy="19.7" r="2.2"/>
	<circle class="st2" cx="84.4" cy="27.5" r="2.2"/>
	<linearGradient id="SVGID_3_" gradientUnits="userSpaceOnUse" x1="3.5" y1="29.5984" x2="74.0377" y2="29.5984">
		<stop  offset="0" style="stop-color:#9FD18B"/>
		<stop  offset="1" style="stop-color:#0094BB"/>
	</linearGradient>
	<path class="st3" d="M74,16.6c0-1.6-1.3-2.9-2.9-2.9l-42.6,0c-7,0-12.8,2-17.3,5.8c-5,4.3-7.8,10.4-7.8,17.3c0,3.1,0.6,6,1.6,8.7
		C8.5,36.9,17,30.7,26.8,30.7h42.4l0,0c1.6,0,2.9-1.3,2.9-2.9c0-1.3-0.9-2.4-2-2.7c0,0,0.1,0,0.1,0c1.6,0,2.9-1.3,2.9-2.9
		c0-1.3-0.9-2.4-2-2.7c0,0,0.1,0,0.1,0C72.7,19.5,74,18.2,74,16.6z"/>
</g>
</svg>
