<?xml version="1.0" encoding="UTF-8"?>
<svg xmlns="http://www.w3.org/2000/svg" xmlns:xlink="http://www.w3.org/1999/xlink" width="3000px" height="730px" viewBox="0 0 2984 730" version="1.1">
<defs>
<linearGradient id="linear0" gradientUnits="userSpaceOnUse" x1="68.4617" y1="419.9716" x2="68.4617" y2="456.8716" gradientTransform="matrix(12.806867,0,0,12.807018,0,-5273.929825)">
<stop offset="0" style="stop-color:rgb(62.352941%,81.960784%,54.509804%);stop-opacity:1;"/>
<stop offset="1" style="stop-color:rgb(0%,58.039216%,73.333333%);stop-opacity:1;"/>
</linearGradient>
<linearGradient id="linear1" gradientUnits="userSpaceOnUse" x1="96.0117" y1="429.3395" x2="96.0117" y2="456.8607" gradientTransform="matrix(12.806867,0,0,12.807018,0,-5273.929825)">
<stop offset="0" style="stop-color:rgb(62.352941%,81.960784%,54.509804%);stop-opacity:1;"/>
<stop offset="1" style="stop-color:rgb(0%,58.039216%,73.333333%);stop-opacity:1;"/>
</linearGradient>
<linearGradient id="linear2" gradientUnits="userSpaceOnUse" x1="126.2617" y1="429.3519" x2="126.2617" y2="456.8731" gradientTransform="matrix(12.806867,0,0,12.807018,0,-5273.929825)">
<stop offset="0" style="stop-color:rgb(62.352941%,81.960784%,54.509804%);stop-opacity:1;"/>
<stop offset="1" style="stop-color:rgb(0%,58.039216%,73.333333%);stop-opacity:1;"/>
</linearGradient>
<linearGradient id="linear3" gradientUnits="userSpaceOnUse" x1="156.6617" y1="429.4013" x2="156.6617" y2="456.8731" gradientTransform="matrix(12.806867,0,0,12.807018,0,-5273.929825)">
<stop offset="0" style="stop-color:rgb(62.352941%,81.960784%,54.509804%);stop-opacity:1;"/>
<stop offset="1" style="stop-color:rgb(0%,58.039216%,73.333333%);stop-opacity:1;"/>
</linearGradient>
<linearGradient id="linear4" gradientUnits="userSpaceOnUse" x1="187.0117" y1="429.4013" x2="187.0117" y2="466.9013" gradientTransform="matrix(12.806867,0,0,12.807018,0,-5273.929825)">
<stop offset="0" style="stop-color:rgb(62.352941%,81.960784%,54.509804%);stop-opacity:1;"/>
<stop offset="1" style="stop-color:rgb(0%,58.039216%,73.333333%);stop-opacity:1;"/>
</linearGradient>
<linearGradient id="linear5" gradientUnits="userSpaceOnUse" x1="217.3617" y1="429.3519" x2="217.3617" y2="456.8731" gradientTransform="matrix(12.806867,0,0,12.807018,0,-5273.929825)">
<stop offset="0" style="stop-color:rgb(62.352941%,81.960784%,54.509804%);stop-opacity:1;"/>
<stop offset="1" style="stop-color:rgb(0%,58.039216%,73.333333%);stop-opacity:1;"/>
</linearGradient>
<linearGradient id="linear6" gradientUnits="userSpaceOnUse" x1="3.3263" y1="426.8952" x2="30.5978" y2="454.1668" gradientTransform="matrix(12.806867,0,0,12.807018,0,-5267.399526)">
<stop offset="0" style="stop-color:rgb(29.019608%,0%,16.862745%);stop-opacity:1;"/>
<stop offset="0.0729768" style="stop-color:rgb(53.72549%,10.980392%,33.72549%);stop-opacity:1;"/>
<stop offset="0.4344" style="stop-color:rgb(92.941176%,8.627451%,31.764706%);stop-opacity:1;"/>
<stop offset="1" style="stop-color:rgb(77.647059%,8.627451%,55.294118%);stop-opacity:1;"/>
</linearGradient>
<linearGradient id="linear7" gradientUnits="userSpaceOnUse" x1="45.9584" y1="427.5888" x2="22.2045" y2="451.3427" gradientTransform="matrix(12.806867,0,0,12.807018,0,-5267.399526)">
<stop offset="0" style="stop-color:rgb(100%,95.686275%,31.372549%);stop-opacity:1;"/>
<stop offset="0.7864" style="stop-color:rgb(95.294118%,43.921569%,26.27451%);stop-opacity:1;"/>
<stop offset="0.8446" style="stop-color:rgb(94.509804%,43.529412%,25.882353%);stop-opacity:1;"/>
<stop offset="0.8775" style="stop-color:rgb(90.980392%,41.568627%,24.705882%);stop-opacity:1;"/>
<stop offset="0.904" style="stop-color:rgb(85.882353%,38.823529%,22.745098%);stop-opacity:1;"/>
<stop offset="0.9271" style="stop-color:rgb(78.039216%,34.901961%,19.607843%);stop-opacity:1;"/>
<stop offset="0.948" style="stop-color:rgb(67.843137%,29.411765%,15.686275%);stop-opacity:1;"/>
<stop offset="0.9671" style="stop-color:rgb(55.686275%,23.137255%,11.372549%);stop-opacity:1;"/>
<stop offset="0.9808" style="stop-color:rgb(45.098039%,17.254902%,7.058824%);stop-opacity:1;"/>
</linearGradient>
<linearGradient id="linear8" gradientUnits="userSpaceOnUse" x1="1.5616" y1="-75.4832" x2="28.9098" y2="-75.4832" gradientTransform="matrix(12.806867,0,0,-12.807018,0,-817.612807)">
<stop offset="0" style="stop-color:rgb(62.352941%,81.960784%,54.509804%);stop-opacity:1;"/>
<stop offset="1" style="stop-color:rgb(0%,58.039216%,73.333333%);stop-opacity:1;"/>
</linearGradient>
</defs>
<g id="surface1">
<path style=" stroke:none;fill-rule:nonzero;fill:url(#linear0);" d="M 1024.550781 181.859375 L 922.09375 181.859375 L 922.09375 519.964844 C 922.09375 539.175781 918.253906 553.261719 909.289062 563.507812 C 900.324219 572.472656 888.796875 577.597656 875.988281 577.597656 C 861.902344 577.597656 850.375 572.472656 841.410156 563.507812 C 832.445312 554.542969 828.605469 539.175781 828.605469 519.964844 L 828.605469 181.859375 L 726.148438 181.859375 C 709.5 181.859375 697.972656 178.015625 690.289062 171.613281 C 682.605469 163.929688 678.765625 154.964844 678.765625 143.4375 C 678.765625 131.914062 682.605469 121.667969 691.570312 115.261719 C 699.253906 108.859375 712.0625 105.015625 727.429688 105.015625 L 1027.109375 105.015625 C 1043.757812 105.015625 1055.285156 108.859375 1062.96875 115.261719 C 1070.652344 122.949219 1074.496094 131.914062 1074.496094 143.4375 C 1074.496094 154.964844 1070.652344 163.929688 1062.96875 171.613281 C 1052.722656 178.015625 1041.199219 181.859375 1024.550781 181.859375 Z M 1024.550781 181.859375 "/>
<path style=" stroke:none;fill-rule:nonzero;fill:url(#linear1);" d="M 1322.949219 422.632812 L 1153.898438 422.632812 C 1153.898438 441.84375 1157.742188 459.773438 1165.425781 475.140625 C 1173.109375 490.507812 1183.355469 502.035156 1196.160156 508.4375 C 1208.96875 516.121094 1223.054688 519.964844 1238.425781 519.964844 C 1248.667969 519.964844 1257.632812 518.683594 1266.597656 516.121094 C 1275.5625 513.5625 1283.25 509.71875 1290.933594 504.597656 C 1298.617188 499.472656 1306.300781 494.351562 1312.703125 487.949219 C 1319.105469 481.542969 1328.070312 473.859375 1339.597656 463.613281 C 1343.441406 459.773438 1349.84375 458.492188 1358.808594 458.492188 C 1367.773438 458.492188 1375.457031 461.050781 1380.582031 466.175781 C 1385.703125 471.296875 1388.265625 477.703125 1388.265625 486.667969 C 1388.265625 494.351562 1385.703125 503.316406 1379.300781 513.5625 C 1372.894531 523.808594 1363.929688 534.050781 1351.125 544.296875 C 1338.316406 554.542969 1322.949219 562.226562 1305.019531 568.632812 C 1285.808594 575.035156 1265.320312 577.597656 1240.984375 577.597656 C 1185.914062 577.597656 1142.371094 562.226562 1111.636719 530.210938 C 1080.898438 498.191406 1065.53125 455.929688 1065.53125 400.859375 C 1065.53125 375.246094 1069.375 352.191406 1077.058594 329.140625 C 1084.742188 307.367188 1096.269531 288.15625 1110.355469 272.789062 C 1124.441406 257.421875 1142.371094 244.613281 1164.144531 236.929688 C 1185.914062 227.964844 1208.96875 224.121094 1234.582031 224.121094 C 1267.878906 224.121094 1297.335938 231.808594 1321.667969 245.894531 C 1346 259.984375 1363.929688 279.191406 1375.457031 300.964844 C 1386.984375 324.015625 1393.386719 347.070312 1393.386719 370.121094 C 1393.386719 391.894531 1386.984375 405.984375 1374.175781 412.386719 C 1363.929688 418.789062 1346 422.632812 1322.949219 422.632812 Z M 1153.898438 372.683594 L 1311.421875 372.683594 C 1308.863281 343.226562 1301.175781 321.457031 1287.089844 306.085938 C 1273.003906 292 1255.074219 284.316406 1232.019531 284.316406 C 1210.25 284.316406 1192.320312 292 1179.511719 306.085938 C 1165.425781 321.457031 1157.742188 343.226562 1153.898438 372.683594 Z M 1153.898438 372.683594 "/>
<path style=" stroke:none;fill-rule:nonzero;fill:url(#linear2);" d="M 1686.664062 527.648438 C 1666.171875 544.296875 1645.683594 555.824219 1626.472656 564.789062 C 1607.261719 572.472656 1585.488281 577.597656 1561.15625 577.597656 C 1539.386719 577.597656 1518.894531 573.753906 1502.246094 564.789062 C 1485.597656 555.824219 1472.789062 544.296875 1463.824219 528.929688 C 1454.859375 513.5625 1449.738281 498.191406 1449.738281 480.261719 C 1449.738281 457.210938 1457.421875 436.71875 1472.789062 420.070312 C 1488.15625 403.421875 1508.648438 391.894531 1534.261719 386.773438 C 1539.386719 385.492188 1553.472656 382.929688 1575.246094 377.808594 C 1597.015625 373.964844 1616.226562 368.84375 1631.59375 365 C 1646.964844 361.15625 1663.613281 357.316406 1681.542969 350.914062 C 1680.261719 327.859375 1676.417969 311.210938 1667.453125 300.964844 C 1659.769531 290.71875 1641.839844 285.597656 1617.507812 285.597656 C 1595.734375 285.597656 1579.085938 288.15625 1567.558594 294.5625 C 1556.035156 300.964844 1547.070312 309.929688 1539.386719 322.738281 C 1531.703125 335.542969 1525.296875 343.226562 1522.738281 347.070312 C 1518.894531 350.914062 1512.492188 353.472656 1502.246094 353.472656 C 1492 353.472656 1484.316406 350.914062 1476.632812 344.507812 C 1468.949219 338.105469 1466.386719 330.421875 1466.386719 320.175781 C 1466.386719 304.808594 1471.507812 290.71875 1483.035156 275.351562 C 1493.28125 261.261719 1511.210938 249.738281 1532.980469 239.492188 C 1556.035156 230.527344 1584.210938 225.402344 1618.789062 225.402344 C 1657.207031 225.402344 1686.664062 230.527344 1708.4375 239.492188 C 1730.207031 248.457031 1745.574219 262.542969 1754.539062 281.753906 C 1763.503906 300.964844 1768.628906 326.578125 1768.628906 358.597656 C 1768.628906 379.085938 1768.628906 395.738281 1768.628906 409.824219 C 1768.628906 423.914062 1768.628906 439.28125 1768.628906 457.210938 C 1768.628906 473.859375 1771.191406 490.507812 1776.3125 508.4375 C 1781.433594 526.367188 1783.996094 537.894531 1783.996094 543.015625 C 1783.996094 551.984375 1780.15625 559.667969 1771.191406 567.351562 C 1762.226562 575.035156 1753.261719 578.878906 1743.015625 578.878906 C 1734.050781 578.878906 1725.085938 575.035156 1716.121094 566.070312 C 1705.875 555.824219 1695.628906 544.296875 1686.664062 527.648438 Z M 1680.261719 402.140625 C 1667.453125 407.261719 1649.523438 411.105469 1625.191406 417.507812 C 1600.859375 422.632812 1584.210938 426.472656 1575.246094 429.035156 C 1566.28125 431.597656 1557.316406 436.71875 1548.351562 443.121094 C 1539.386719 450.808594 1535.542969 459.773438 1535.542969 472.578125 C 1535.542969 485.386719 1540.667969 496.914062 1550.910156 505.878906 C 1561.15625 514.84375 1573.964844 519.964844 1589.332031 519.964844 C 1605.980469 519.964844 1622.628906 516.121094 1636.71875 508.4375 C 1650.804688 500.753906 1662.332031 491.789062 1668.734375 478.984375 C 1676.417969 466.175781 1680.261719 444.402344 1680.261719 414.949219 C 1680.261719 414.949219 1680.261719 402.140625 1680.261719 402.140625 Z M 1680.261719 402.140625 "/>
<path style=" stroke:none;fill-rule:nonzero;fill:url(#linear3);" d="M 1932.554688 272.789062 L 1932.554688 283.035156 C 1947.925781 262.542969 1964.574219 248.457031 1982.503906 238.210938 C 2000.433594 229.246094 2020.921875 224.121094 2045.257812 224.121094 C 2068.308594 224.121094 2088.800781 229.246094 2106.730469 239.492188 C 2124.660156 249.738281 2138.746094 263.824219 2146.429688 281.753906 C 2151.554688 292 2155.394531 303.527344 2157.957031 316.332031 C 2159.238281 329.140625 2160.519531 344.507812 2160.519531 363.71875 L 2160.519531 525.085938 C 2160.519531 543.015625 2156.675781 555.824219 2148.992188 564.789062 C 2141.308594 573.753906 2131.0625 577.597656 2118.253906 577.597656 C 2105.449219 577.597656 2095.203125 572.472656 2086.238281 563.507812 C 2078.554688 554.542969 2074.710938 541.738281 2074.710938 525.085938 L 2074.710938 380.367188 C 2074.710938 352.191406 2070.871094 330.421875 2063.1875 315.050781 C 2055.503906 299.683594 2038.851562 292 2015.800781 292 C 2000.433594 292 1986.34375 297.121094 1973.539062 306.085938 C 1960.730469 315.050781 1951.765625 327.859375 1945.363281 344.507812 C 1941.519531 357.316406 1938.960938 381.648438 1938.960938 416.226562 L 1938.960938 525.085938 C 1938.960938 543.015625 1935.117188 555.824219 1926.152344 564.789062 C 1918.46875 573.753906 1906.941406 577.597656 1894.136719 577.597656 C 1881.328125 577.597656 1871.082031 572.472656 1863.398438 563.507812 C 1855.714844 554.542969 1851.871094 541.738281 1851.871094 525.085938 L 1851.871094 275.351562 C 1851.871094 258.703125 1855.714844 247.175781 1862.117188 238.210938 C 1869.800781 230.527344 1878.765625 225.402344 1891.574219 225.402344 C 1899.257812 225.402344 1905.660156 226.683594 1912.066406 230.527344 C 1918.46875 234.367188 1923.589844 239.492188 1927.433594 247.175781 C 1929.996094 253.578125 1932.554688 262.542969 1932.554688 272.789062 Z M 1932.554688 272.789062 "/>
<path style=" stroke:none;fill-rule:nonzero;fill:url(#linear4);" d="M 2563.933594 288.15625 L 2563.933594 539.175781 C 2563.933594 567.351562 2561.375 592.964844 2554.96875 613.457031 C 2548.566406 633.949219 2539.601562 651.878906 2525.515625 664.683594 C 2511.425781 678.773438 2494.777344 687.738281 2473.007812 695.421875 C 2451.234375 701.824219 2424.339844 705.667969 2391.042969 705.667969 C 2361.585938 705.667969 2334.691406 701.824219 2311.640625 692.859375 C 2288.585938 683.894531 2270.65625 673.648438 2257.851562 660.84375 C 2245.042969 648.035156 2238.640625 633.949219 2238.640625 619.859375 C 2238.640625 609.613281 2242.480469 600.648438 2248.886719 594.246094 C 2256.570312 587.84375 2264.253906 584 2274.5 584 C 2287.304688 584 2298.832031 589.121094 2307.796875 600.648438 C 2312.921875 605.773438 2316.761719 612.175781 2321.886719 617.296875 C 2327.007812 623.703125 2332.128906 627.542969 2338.535156 632.667969 C 2344.9375 636.507812 2351.339844 640.351562 2360.304688 641.632812 C 2369.269531 644.191406 2378.234375 644.191406 2389.761719 644.191406 C 2411.53125 644.191406 2429.460938 641.632812 2442.269531 635.226562 C 2455.078125 628.824219 2462.761719 619.859375 2467.882812 609.613281 C 2473.007812 598.085938 2475.566406 586.5625 2476.847656 573.753906 C 2478.128906 560.949219 2478.128906 540.457031 2478.128906 512.28125 C 2465.320312 531.492188 2449.953125 545.578125 2432.023438 554.542969 C 2414.09375 564.789062 2393.601562 568.632812 2369.269531 568.632812 C 2339.816406 568.632812 2315.480469 560.949219 2293.710938 546.859375 C 2271.9375 531.492188 2255.289062 511 2243.761719 484.105469 C 2232.238281 457.210938 2225.832031 426.472656 2225.832031 391.894531 C 2225.832031 366.28125 2229.675781 341.949219 2236.078125 321.457031 C 2242.480469 300.964844 2252.726562 283.035156 2266.816406 268.949219 C 2279.621094 254.859375 2294.992188 243.332031 2311.640625 236.929688 C 2328.289062 229.246094 2347.5 225.402344 2367.988281 225.402344 C 2392.324219 225.402344 2414.09375 230.527344 2432.023438 239.492188 C 2449.953125 248.457031 2466.601562 263.824219 2481.972656 284.316406 L 2481.972656 272.789062 C 2481.972656 257.421875 2485.8125 245.894531 2493.496094 238.210938 C 2501.179688 230.527344 2510.144531 225.402344 2521.671875 225.402344 C 2538.320312 225.402344 2549.847656 230.527344 2554.96875 242.050781 C 2561.375 252.296875 2563.933594 267.667969 2563.933594 288.15625 Z M 2312.921875 398.296875 C 2312.921875 432.878906 2320.605469 459.773438 2335.972656 477.703125 C 2351.339844 495.632812 2370.550781 504.597656 2394.882812 504.597656 C 2408.972656 504.597656 2423.058594 500.753906 2435.867188 493.070312 C 2448.671875 485.386719 2458.917969 473.859375 2466.601562 458.492188 C 2474.285156 443.121094 2478.128906 423.914062 2478.128906 402.140625 C 2478.128906 366.28125 2470.445312 339.386719 2455.078125 320.175781 C 2439.707031 300.964844 2419.21875 290.71875 2393.601562 290.71875 C 2369.269531 290.71875 2348.78125 299.683594 2334.691406 318.894531 C 2320.605469 336.824219 2312.921875 363.71875 2312.921875 398.296875 Z M 2312.921875 398.296875 "/>
<path style=" stroke:none;fill-rule:nonzero;fill:url(#linear5);" d="M 2853.371094 527.648438 C 2832.878906 544.296875 2812.386719 555.824219 2793.175781 564.789062 C 2773.96875 572.472656 2752.195312 577.597656 2727.863281 577.597656 C 2706.089844 577.597656 2685.601562 573.753906 2668.949219 564.789062 C 2652.300781 555.824219 2639.496094 544.296875 2630.53125 528.929688 C 2621.566406 513.5625 2616.441406 498.191406 2616.441406 480.261719 C 2616.441406 457.210938 2624.128906 436.71875 2639.496094 420.070312 C 2654.863281 403.421875 2675.355469 391.894531 2700.96875 386.773438 C 2706.089844 385.492188 2720.179688 382.929688 2741.949219 377.808594 C 2763.722656 373.964844 2782.933594 368.84375 2798.300781 365 C 2813.667969 361.15625 2830.316406 357.316406 2848.246094 350.914062 C 2846.964844 327.859375 2843.125 311.210938 2834.160156 300.964844 C 2826.476562 290.71875 2808.546875 285.597656 2784.210938 285.597656 C 2762.441406 285.597656 2745.792969 288.15625 2734.265625 294.5625 C 2722.738281 300.964844 2713.773438 309.929688 2706.089844 322.738281 C 2698.40625 335.542969 2692.003906 343.226562 2689.441406 347.070312 C 2685.601562 350.914062 2679.195312 353.472656 2668.949219 353.472656 C 2658.707031 353.472656 2651.019531 350.914062 2643.335938 344.507812 C 2635.652344 338.105469 2633.09375 330.421875 2633.09375 320.175781 C 2633.09375 304.808594 2638.214844 290.71875 2649.742188 275.351562 C 2659.984375 261.261719 2677.914062 249.738281 2699.6875 239.492188 C 2722.738281 230.527344 2750.914062 225.402344 2785.492188 225.402344 C 2823.914062 225.402344 2853.371094 230.527344 2875.140625 239.492188 C 2896.914062 248.457031 2912.28125 262.542969 2921.246094 281.753906 C 2930.210938 300.964844 2935.332031 326.578125 2935.332031 358.597656 C 2935.332031 379.085938 2935.332031 395.738281 2935.332031 409.824219 C 2935.332031 423.914062 2935.332031 439.28125 2935.332031 457.210938 C 2935.332031 473.859375 2937.894531 490.507812 2943.019531 508.4375 C 2948.140625 526.367188 2950.703125 537.894531 2950.703125 543.015625 C 2950.703125 551.984375 2946.859375 559.667969 2937.894531 567.351562 C 2928.929688 575.035156 2919.964844 578.878906 2909.71875 578.878906 C 2900.753906 578.878906 2891.789062 575.035156 2882.824219 566.070312 C 2872.582031 555.824219 2863.617188 544.296875 2853.371094 527.648438 Z M 2848.246094 402.140625 C 2835.441406 407.261719 2817.511719 411.105469 2793.175781 417.507812 C 2768.84375 422.632812 2752.195312 426.472656 2743.230469 429.035156 C 2734.265625 431.597656 2725.300781 436.71875 2716.335938 443.121094 C 2707.371094 450.808594 2703.53125 459.773438 2703.53125 472.578125 C 2703.53125 485.386719 2708.652344 496.914062 2718.898438 505.878906 C 2729.144531 514.84375 2741.949219 519.964844 2757.320312 519.964844 C 2773.96875 519.964844 2790.617188 516.121094 2804.703125 508.4375 C 2818.792969 500.753906 2830.316406 491.789062 2836.722656 478.984375 C 2844.40625 466.175781 2848.246094 444.402344 2848.246094 414.949219 Z M 2848.246094 402.140625 "/>
<path style=" stroke:none;fill-rule:nonzero;fill:url(#linear6);" d="M 28.175781 227.964844 C 44.824219 185.703125 87.085938 154.964844 135.753906 154.964844 L 158.804688 154.964844 C 146 154.964844 135.753906 157.527344 129.347656 163.929688 C 121.664062 170.332031 117.824219 179.296875 117.824219 189.542969 C 117.824219 199.789062 121.664062 208.753906 128.070312 215.15625 C 134.472656 221.5625 144.71875 224.121094 158.804688 224.121094 C 222.839844 224.121094 274.066406 276.632812 274.066406 339.386719 L 274.066406 454.648438 C 274.066406 509.71875 313.769531 557.105469 366.277344 568.632812 C 370.117188 567.351562 372.679688 564.789062 376.523438 563.507812 C 358.59375 573.753906 336.820312 580.15625 315.050781 580.15625 C 279.191406 580.15625 248.453125 567.351562 224.121094 541.738281 C 202.347656 517.402344 190.824219 485.386719 190.824219 444.402344 L 190.824219 340.667969 C 190.824219 317.613281 171.613281 298.402344 148.558594 298.402344 L 144.71875 298.402344 C 108.859375 298.402344 78.121094 288.15625 56.351562 267.667969 C 43.542969 257.421875 34.578125 243.332031 28.175781 227.964844 Z M 28.175781 227.964844 "/>
<path style=" stroke:none;fill-rule:nonzero;fill:url(#linear7);" d="M 354.75 339.386719 L 354.75 446.964844 C 354.75 462.332031 350.90625 475.140625 343.222656 482.824219 C 335.539062 490.507812 325.292969 495.632812 313.769531 495.632812 C 302.242188 495.632812 291.996094 491.789062 284.3125 482.824219 C 276.628906 475.140625 272.785156 463.613281 272.785156 446.964844 L 272.785156 454.648438 C 272.785156 509.71875 312.488281 557.105469 364.996094 568.632812 C 379.082031 562.226562 391.890625 553.261719 403.417969 540.457031 C 425.1875 516.121094 436.714844 484.105469 436.714844 443.121094 L 436.714844 339.386719 C 436.714844 316.332031 455.925781 297.121094 478.976562 297.121094 L 482.820312 297.121094 C 518.679688 297.121094 548.132812 286.878906 571.1875 267.667969 C 592.957031 248.457031 601.921875 222.84375 601.921875 222.84375 L 471.292969 222.84375 C 407.257812 224.121094 354.75 276.632812 354.75 339.386719 Z M 354.75 339.386719 "/>
<path style=" stroke:none;fill-rule:nonzero;fill:rgb(1.176471%,58.039216%,73.333333%);fill-opacity:1;" d="M 416.222656 78.121094 C 416.222656 85.195312 410.488281 90.929688 403.417969 90.929688 C 396.34375 90.929688 390.609375 85.195312 390.609375 78.121094 C 390.609375 71.050781 396.34375 65.316406 403.417969 65.316406 C 410.488281 65.316406 416.222656 71.050781 416.222656 78.121094 Z M 416.222656 78.121094 "/>
<path style=" stroke:none;fill-rule:nonzero;fill:rgb(1.176471%,58.039216%,73.333333%);fill-opacity:1;" d="M 404.695312 111.421875 C 404.695312 118.496094 398.964844 124.226562 391.890625 124.226562 C 384.816406 124.226562 379.082031 118.496094 379.082031 111.421875 C 379.082031 104.347656 384.816406 98.613281 391.890625 98.613281 C 398.964844 98.613281 404.695312 104.347656 404.695312 111.421875 Z M 404.695312 111.421875 "/>
<path style=" stroke:none;fill-rule:nonzero;fill:rgb(1.176471%,58.039216%,73.333333%);fill-opacity:1;" d="M 390.609375 144.71875 C 390.609375 151.792969 384.875 157.527344 377.800781 157.527344 C 370.730469 157.527344 364.996094 151.792969 364.996094 144.71875 C 364.996094 137.644531 370.730469 131.914062 377.800781 131.914062 C 384.875 131.914062 390.609375 137.644531 390.609375 144.71875 Z M 390.609375 144.71875 "/>
<path style=" stroke:none;fill-rule:nonzero;fill:rgb(1.176471%,58.039216%,73.333333%);fill-opacity:1;" d="M 458.484375 66.597656 C 458.484375 72.960938 453.324219 78.121094 446.960938 78.121094 C 440.59375 78.121094 435.433594 72.960938 435.433594 66.597656 C 435.433594 60.230469 440.59375 55.070312 446.960938 55.070312 C 453.324219 55.070312 458.484375 60.230469 458.484375 66.597656 Z M 458.484375 66.597656 "/>
<path style=" stroke:none;fill-rule:nonzero;fill:rgb(1.176471%,58.039216%,73.333333%);fill-opacity:1;" d="M 498.1875 56.351562 C 498.1875 61.300781 494.171875 65.316406 489.222656 65.316406 C 484.269531 65.316406 480.257812 61.300781 480.257812 56.351562 C 480.257812 51.398438 484.269531 47.386719 489.222656 47.386719 C 494.171875 47.386719 498.1875 51.398438 498.1875 56.351562 Z M 498.1875 56.351562 "/>
<path style=" stroke:none;fill-rule:nonzero;fill:rgb(1.176471%,58.039216%,73.333333%);fill-opacity:1;" d="M 484.097656 89.648438 C 484.097656 94.601562 480.085938 98.613281 475.132812 98.613281 C 470.183594 98.613281 466.171875 94.601562 466.171875 89.648438 C 466.171875 84.699219 470.183594 80.683594 475.132812 80.683594 C 480.085938 80.683594 484.097656 84.699219 484.097656 89.648438 Z M 484.097656 89.648438 "/>
<path style=" stroke:none;fill-rule:nonzero;fill:rgb(1.176471%,58.039216%,73.333333%);fill-opacity:1;" d="M 468.730469 125.507812 C 468.730469 130.460938 464.71875 134.472656 459.765625 134.472656 C 454.816406 134.472656 450.800781 130.460938 450.800781 125.507812 C 450.800781 120.558594 454.816406 116.542969 459.765625 116.542969 C 464.71875 116.542969 468.730469 120.558594 468.730469 125.507812 Z M 468.730469 125.507812 "/>
<path style=" stroke:none;fill-rule:nonzero;fill:rgb(1.176471%,58.039216%,73.333333%);fill-opacity:1;" d="M 517.398438 84.527344 C 517.398438 88.769531 513.957031 92.210938 509.714844 92.210938 C 505.46875 92.210938 502.027344 88.769531 502.027344 84.527344 C 502.027344 80.28125 505.46875 76.84375 509.714844 76.84375 C 513.957031 76.84375 517.398438 80.28125 517.398438 84.527344 Z M 517.398438 84.527344 "/>
<path style=" stroke:none;fill-rule:nonzero;fill:rgb(1.176471%,58.039216%,73.333333%);fill-opacity:1;" d="M 532.765625 47.386719 C 532.765625 51.628906 529.324219 55.070312 525.082031 55.070312 C 520.835938 55.070312 517.398438 51.628906 517.398438 47.386719 C 517.398438 43.140625 520.835938 39.703125 525.082031 39.703125 C 529.324219 39.703125 532.765625 43.140625 532.765625 47.386719 Z M 532.765625 47.386719 "/>
<path style=" stroke:none;fill-rule:nonzero;fill:rgb(1.176471%,58.039216%,73.333333%);fill-opacity:1;" d="M 448.242188 99.894531 C 448.242188 106.261719 443.078125 111.421875 436.714844 111.421875 C 430.347656 111.421875 425.1875 106.261719 425.1875 99.894531 C 425.1875 93.527344 430.347656 88.367188 436.714844 88.367188 C 443.078125 88.367188 448.242188 93.527344 448.242188 99.894531 Z M 448.242188 99.894531 "/>
<path style=" stroke:none;fill-rule:nonzero;fill:rgb(1.176471%,58.039216%,73.333333%);fill-opacity:1;" d="M 432.871094 138.316406 C 432.871094 144.679688 427.710938 149.84375 421.347656 149.84375 C 414.980469 149.84375 409.820312 144.679688 409.820312 138.316406 C 409.820312 131.949219 414.980469 126.789062 421.347656 126.789062 C 427.710938 126.789062 432.871094 131.949219 432.871094 138.316406 Z M 432.871094 138.316406 "/>
<path style=" stroke:none;fill-rule:nonzero;fill:url(#linear8);" d="M 370.117188 84.527344 C 370.117188 76.84375 363.714844 70.4375 356.03125 70.4375 L 143.4375 70.4375 C 108.859375 70.4375 79.402344 80.683594 57.632812 98.613281 C 33.296875 120.386719 19.210938 149.84375 19.210938 184.421875 C 19.210938 199.789062 21.773438 213.878906 26.894531 227.964844 C 43.542969 185.703125 85.804688 154.964844 134.472656 154.964844 L 345.785156 154.964844 C 353.46875 154.964844 359.871094 148.5625 359.871094 140.878906 C 359.871094 134.472656 356.03125 129.351562 349.628906 128.070312 C 357.3125 128.070312 363.714844 121.667969 363.714844 113.984375 C 363.714844 107.578125 359.871094 102.457031 353.46875 101.175781 C 363.714844 98.613281 370.117188 92.210938 370.117188 84.527344 Z M 370.117188 84.527344 "/>
</g>
</svg>
